<svg width="124" height="41" viewBox="0 0 124 41" fill="none" xmlns="http://www.w3.org/2000/svg">
<path d="M1.26 0.447C1.848 0.334999 2.492 0.250999 3.192 0.194999C3.906 0.124999 4.613 0.0899992 5.313 0.0899992C6.041 0.0899992 6.769 0.152999 7.497 0.278999C8.239 0.390999 8.904 0.628999 9.492 0.992999C10.08 1.343 10.556 1.84 10.92 2.484C11.298 3.114 11.487 3.94 11.487 4.962C11.487 5.886 11.326 6.67 11.004 7.314C10.682 7.944 10.255 8.462 9.723 8.868C9.191 9.274 8.582 9.568 7.896 9.75C7.224 9.932 6.524 10.023 5.796 10.023C5.726 10.023 5.614 10.023 5.46 10.023C5.306 10.023 5.145 10.023 4.977 10.023C4.809 10.009 4.641 9.995 4.473 9.981C4.319 9.967 4.207 9.953 4.137 9.939V15H1.26V0.447ZM5.544 2.568C5.264 2.568 4.998 2.582 4.746 2.61C4.494 2.624 4.291 2.645 4.137 2.673V7.44C4.193 7.454 4.277 7.468 4.389 7.482C4.501 7.496 4.62 7.51 4.746 7.524C4.872 7.524 4.991 7.524 5.103 7.524C5.229 7.524 5.32 7.524 5.376 7.524C5.754 7.524 6.125 7.489 6.489 7.419C6.867 7.349 7.203 7.223 7.497 7.041C7.791 6.845 8.022 6.579 8.19 6.243C8.372 5.907 8.463 5.466 8.463 4.92C8.463 4.458 8.379 4.08 8.211 3.786C8.043 3.478 7.819 3.233 7.539 3.051C7.273 2.869 6.965 2.743 6.615 2.673C6.265 2.603 5.908 2.568 5.544 2.568ZM12.6594 5.109C13.2194 4.857 13.8844 4.661 14.6544 4.521C15.4244 4.367 16.2294 4.29 17.0694 4.29C17.7974 4.29 18.4064 4.381 18.8964 4.563C19.3864 4.731 19.7714 4.976 20.0514 5.298C20.3454 5.62 20.5484 6.005 20.6604 6.453C20.7864 6.901 20.8494 7.405 20.8494 7.965C20.8494 8.581 20.8284 9.204 20.7864 9.834C20.7444 10.45 20.7164 11.059 20.7024 11.661C20.7024 12.263 20.7234 12.851 20.7654 13.425C20.8074 13.985 20.9124 14.517 21.0804 15.021H18.8544L18.4134 13.572H18.3084C18.0284 14.006 17.6364 14.384 17.1324 14.706C16.6424 15.014 16.0054 15.168 15.2214 15.168C14.7314 15.168 14.2904 15.098 13.8984 14.958C13.5064 14.804 13.1704 14.594 12.8904 14.328C12.6104 14.048 12.3934 13.726 12.2394 13.362C12.0854 12.984 12.0084 12.564 12.0084 12.102C12.0084 11.458 12.1484 10.919 12.4284 10.485C12.7224 10.037 13.1354 9.68 13.6674 9.414C14.2134 9.134 14.8574 8.945 15.5994 8.847C16.3554 8.735 17.1954 8.7 18.1194 8.742C18.2174 7.958 18.1614 7.398 17.9514 7.062C17.7414 6.712 17.2724 6.537 16.5444 6.537C15.9984 6.537 15.4174 6.593 14.8014 6.705C14.1994 6.817 13.7024 6.964 13.3104 7.146L12.6594 5.109ZM16.1244 12.921C16.6704 12.921 17.1044 12.802 17.4264 12.564C17.7484 12.312 17.9864 12.046 18.1404 11.766V10.401C17.7064 10.359 17.2864 10.352 16.8804 10.38C16.4884 10.408 16.1384 10.471 15.8304 10.569C15.5224 10.667 15.2774 10.807 15.0954 10.989C14.9134 11.171 14.8224 11.402 14.8224 11.682C14.8224 12.074 14.9344 12.382 15.1584 12.606C15.3964 12.816 15.7184 12.921 16.1244 12.921ZM30.5744 14.349C30.1544 14.657 29.6434 14.888 29.0414 15.042C28.4534 15.21 27.8444 15.294 27.2144 15.294C26.3744 15.294 25.6604 15.161 25.0724 14.895C24.4984 14.629 24.0294 14.258 23.6654 13.782C23.3014 13.292 23.0354 12.704 22.8674 12.018C22.7134 11.332 22.6364 10.576 22.6364 9.75C22.6364 7.972 23.0354 6.607 23.8334 5.655C24.6314 4.689 25.7934 4.206 27.3194 4.206C28.0894 4.206 28.7054 4.269 29.1674 4.395C29.6434 4.521 30.0704 4.682 30.4484 4.878L29.7974 7.104C29.4754 6.95 29.1534 6.831 28.8314 6.747C28.5234 6.663 28.1664 6.621 27.7604 6.621C27.0044 6.621 26.4304 6.873 26.0384 7.377C25.6464 7.867 25.4504 8.658 25.4504 9.75C25.4504 10.198 25.4994 10.611 25.5974 10.989C25.6954 11.367 25.8424 11.696 26.0384 11.976C26.2344 12.256 26.4864 12.48 26.7944 12.648C27.1164 12.802 27.4874 12.879 27.9074 12.879C28.3694 12.879 28.7614 12.823 29.0834 12.711C29.4054 12.585 29.6924 12.438 29.9444 12.27L30.5744 14.349ZM39.6828 6.915H36.7638V15H33.9498V6.915H30.9468V4.5H39.6828V6.915ZM47.2211 10.212L47.3261 8.721H47.2631L46.3601 10.254L42.6221 15H40.9001V4.5H43.6301V9.498L43.5041 10.926H43.5881L44.4491 9.435L48.2291 4.5H49.9511V15H47.2211V10.212ZM59.9035 6.915H56.9845V15H54.1705V6.915H51.1675V4.5H59.9035V6.915ZM69.3568 14.097C68.9368 14.433 68.3628 14.72 67.6348 14.958C66.9208 15.182 66.1578 15.294 65.3458 15.294C63.6518 15.294 62.4128 14.804 61.6288 13.824C60.8448 12.83 60.4528 11.472 60.4528 9.75C60.4528 7.902 60.8938 6.516 61.7758 5.592C62.6578 4.668 63.8968 4.206 65.4928 4.206C66.0248 4.206 66.5428 4.276 67.0468 4.416C67.5508 4.556 67.9988 4.787 68.3908 5.109C68.7828 5.431 69.0978 5.865 69.3358 6.411C69.5738 6.957 69.6928 7.636 69.6928 8.448C69.6928 8.742 69.6718 9.057 69.6298 9.393C69.6018 9.729 69.5528 10.079 69.4828 10.443H63.1828C63.2248 11.325 63.4488 11.99 63.8548 12.438C64.2748 12.886 64.9468 13.11 65.8708 13.11C66.4448 13.11 66.9558 13.026 67.4038 12.858C67.8658 12.676 68.2158 12.494 68.4538 12.312L69.3568 14.097ZM65.4508 6.39C64.7368 6.39 64.2048 6.607 63.8548 7.041C63.5188 7.461 63.3158 8.028 63.2458 8.742H67.1518C67.2078 7.986 67.0888 7.405 66.7948 6.999C66.5148 6.593 66.0668 6.39 65.4508 6.39ZM77.1072 6.915H75.0282C74.9442 7.909 74.8462 8.896 74.7342 9.876C74.6222 10.856 74.4402 11.738 74.1882 12.522C73.9502 13.292 73.6212 13.922 73.2012 14.412C72.7812 14.888 72.2352 15.126 71.5632 15.126C70.7512 15.126 70.1772 15.021 69.8412 14.811L70.1772 12.543C70.4012 12.627 70.6112 12.669 70.8072 12.669C71.0872 12.669 71.3322 12.55 71.5422 12.312C71.7522 12.074 71.9272 11.647 72.0672 11.031C72.2212 10.415 72.3402 9.582 72.4242 8.532C72.5222 7.468 72.5922 6.124 72.6342 4.5H79.8372V15H77.1072V6.915ZM84.9329 12.711C85.3529 12.795 85.7519 12.837 86.1299 12.837C86.8019 12.837 87.2849 12.725 87.5789 12.501C87.8869 12.263 88.0409 11.899 88.0409 11.409C88.0409 10.499 87.4249 10.044 86.1929 10.044C85.7309 10.044 85.3109 10.093 84.9329 10.191V12.711ZM84.9329 8.238C85.2689 8.182 85.6049 8.147 85.9409 8.133C86.2909 8.105 86.6059 8.091 86.8859 8.091C87.6139 8.091 88.2299 8.175 88.7339 8.343C89.2379 8.497 89.6439 8.721 89.9519 9.015C90.2739 9.309 90.5049 9.659 90.6449 10.065C90.7849 10.457 90.8549 10.884 90.8549 11.346C90.8549 12.62 90.4769 13.572 89.7209 14.202C88.9649 14.832 87.6839 15.147 85.8779 15.147C85.0799 15.147 84.3869 15.133 83.7989 15.105C83.2249 15.077 82.6929 15.042 82.2029 15V4.5H84.9329V8.238ZM98.6508 10.884H95.2278V15H92.4978V4.5H95.2278V8.448H98.6508V4.5H101.381V15H98.6508V10.884ZM103.714 5.109C104.274 4.857 104.939 4.661 105.709 4.521C106.479 4.367 107.284 4.29 108.124 4.29C108.852 4.29 109.461 4.381 109.951 4.563C110.441 4.731 110.826 4.976 111.106 5.298C111.4 5.62 111.603 6.005 111.715 6.453C111.841 6.901 111.904 7.405 111.904 7.965C111.904 8.581 111.883 9.204 111.841 9.834C111.799 10.45 111.771 11.059 111.757 11.661C111.757 12.263 111.778 12.851 111.82 13.425C111.862 13.985 111.967 14.517 112.135 15.021H109.909L109.468 13.572H109.363C109.083 14.006 108.691 14.384 108.187 14.706C107.697 15.014 107.06 15.168 106.276 15.168C105.786 15.168 105.345 15.098 104.953 14.958C104.561 14.804 104.225 14.594 103.945 14.328C103.665 14.048 103.448 13.726 103.294 13.362C103.14 12.984 103.063 12.564 103.063 12.102C103.063 11.458 103.203 10.919 103.483 10.485C103.777 10.037 104.19 9.68 104.722 9.414C105.268 9.134 105.912 8.945 106.654 8.847C107.41 8.735 108.25 8.7 109.174 8.742C109.272 7.958 109.216 7.398 109.006 7.062C108.796 6.712 108.327 6.537 107.599 6.537C107.053 6.537 106.472 6.593 105.856 6.705C105.254 6.817 104.757 6.964 104.365 7.146L103.714 5.109ZM107.179 12.921C107.725 12.921 108.159 12.802 108.481 12.564C108.803 12.312 109.041 12.046 109.195 11.766V10.401C108.761 10.359 108.341 10.352 107.935 10.38C107.543 10.408 107.193 10.471 106.885 10.569C106.577 10.667 106.332 10.807 106.15 10.989C105.968 11.171 105.877 11.402 105.877 11.682C105.877 12.074 105.989 12.382 106.213 12.606C106.451 12.816 106.773 12.921 107.179 12.921ZM119.739 11.031L118.479 11.283L116.463 15H113.208L115.245 11.703L116.274 10.926C115.588 10.814 115.021 10.492 114.573 9.96C114.125 9.414 113.901 8.735 113.901 7.923C113.901 6.649 114.321 5.711 115.161 5.109C116.015 4.507 117.317 4.206 119.067 4.206C119.739 4.206 120.362 4.241 120.936 4.311C121.524 4.381 122.035 4.458 122.469 4.542V15H119.739V11.031ZM119.739 9.603V6.705C119.585 6.635 119.417 6.586 119.235 6.558C119.053 6.53 118.878 6.516 118.71 6.516C118.08 6.516 117.59 6.649 117.24 6.915C116.89 7.181 116.715 7.58 116.715 8.112C116.715 8.644 116.904 9.036 117.282 9.288C117.674 9.54 118.241 9.659 118.983 9.645L119.739 9.603ZM1.134 26.109C1.694 25.857 2.359 25.661 3.129 25.521C3.899 25.367 4.704 25.29 5.544 25.29C6.272 25.29 6.881 25.381 7.371 25.563C7.861 25.731 8.246 25.976 8.526 26.298C8.82 26.62 9.023 27.005 9.135 27.453C9.261 27.901 9.324 28.405 9.324 28.965C9.324 29.581 9.303 30.204 9.261 30.834C9.219 31.45 9.191 32.059 9.177 32.661C9.177 33.263 9.198 33.851 9.24 34.425C9.282 34.985 9.387 35.517 9.555 36.021H7.329L6.888 34.572H6.783C6.503 35.006 6.111 35.384 5.607 35.706C5.117 36.014 4.48 36.168 3.696 36.168C3.206 36.168 2.765 36.098 2.373 35.958C1.981 35.804 1.645 35.594 1.365 35.328C1.085 35.048 0.868 34.726 0.714 34.362C0.56 33.984 0.483 33.564 0.483 33.102C0.483 32.458 0.623 31.919 0.903 31.485C1.197 31.037 1.61 30.68 2.142 30.414C2.688 30.134 3.332 29.945 4.074 29.847C4.83 29.735 5.67 29.7 6.594 29.742C6.692 28.958 6.636 28.398 6.426 28.062C6.216 27.712 5.747 27.537 5.019 27.537C4.473 27.537 3.892 27.593 3.276 27.705C2.674 27.817 2.177 27.964 1.785 28.146L1.134 26.109ZM4.599 33.921C5.145 33.921 5.579 33.802 5.901 33.564C6.223 33.312 6.461 33.046 6.615 32.766V31.401C6.181 31.359 5.761 31.352 5.355 31.38C4.963 31.408 4.613 31.471 4.305 31.569C3.997 31.667 3.752 31.807 3.57 31.989C3.388 32.171 3.297 32.402 3.297 32.682C3.297 33.074 3.409 33.382 3.633 33.606C3.871 33.816 4.193 33.921 4.599 33.921ZM17.327 27.915H15.248C15.164 28.909 15.066 29.896 14.954 30.876C14.842 31.856 14.66 32.738 14.408 33.522C14.17 34.292 13.841 34.922 13.421 35.412C13.001 35.888 12.455 36.126 11.783 36.126C10.971 36.126 10.397 36.021 10.061 35.811L10.397 33.543C10.621 33.627 10.831 33.669 11.027 33.669C11.307 33.669 11.552 33.55 11.762 33.312C11.972 33.074 12.147 32.647 12.287 32.031C12.441 31.415 12.56 30.582 12.644 29.532C12.742 28.468 12.812 27.124 12.854 25.5H20.057V36H17.327V27.915ZM25.1526 33.711C25.5726 33.795 25.9716 33.837 26.3496 33.837C27.0216 33.837 27.5046 33.725 27.7986 33.501C28.1066 33.263 28.2606 32.899 28.2606 32.409C28.2606 31.499 27.6446 31.044 26.4126 31.044C25.9506 31.044 25.5306 31.093 25.1526 31.191V33.711ZM25.1526 29.238C25.4886 29.182 25.8246 29.147 26.1606 29.133C26.5106 29.105 26.8256 29.091 27.1056 29.091C27.8336 29.091 28.4496 29.175 28.9536 29.343C29.4576 29.497 29.8636 29.721 30.1716 30.015C30.4936 30.309 30.7246 30.659 30.8646 31.065C31.0046 31.457 31.0746 31.884 31.0746 32.346C31.0746 33.62 30.6966 34.572 29.9406 35.202C29.1846 35.832 27.9036 36.147 26.0976 36.147C25.2996 36.147 24.6066 36.133 24.0186 36.105C23.4446 36.077 22.9126 36.042 22.4226 36V25.5H25.1526V29.238ZM39.5187 27.915H36.5997V36H33.7857V27.915H30.7827V25.5H39.5187V27.915ZM48.972 35.097C48.552 35.433 47.978 35.72 47.25 35.958C46.536 36.182 45.773 36.294 44.961 36.294C43.267 36.294 42.028 35.804 41.244 34.824C40.46 33.83 40.068 32.472 40.068 30.75C40.068 28.902 40.509 27.516 41.391 26.592C42.273 25.668 43.512 25.206 45.108 25.206C45.64 25.206 46.158 25.276 46.662 25.416C47.166 25.556 47.614 25.787 48.006 26.109C48.398 26.431 48.713 26.865 48.951 27.411C49.189 27.957 49.308 28.636 49.308 29.448C49.308 29.742 49.287 30.057 49.245 30.393C49.217 30.729 49.168 31.079 49.098 31.443H42.798C42.84 32.325 43.064 32.99 43.47 33.438C43.89 33.886 44.562 34.11 45.486 34.11C46.06 34.11 46.571 34.026 47.019 33.858C47.481 33.676 47.831 33.494 48.069 33.312L48.972 35.097ZM45.066 27.39C44.352 27.39 43.82 27.607 43.47 28.041C43.134 28.461 42.931 29.028 42.861 29.742H46.767C46.823 28.986 46.704 28.405 46.41 27.999C46.13 27.593 45.682 27.39 45.066 27.39ZM51.2361 25.5H53.2311L53.5461 26.76H53.6301C53.9941 26.228 54.4211 25.836 54.9111 25.584C55.4151 25.332 56.0241 25.206 56.7381 25.206C58.0541 25.206 59.0411 25.626 59.6991 26.466C60.3571 27.292 60.6861 28.629 60.6861 30.477C60.6861 31.373 60.5811 32.185 60.3711 32.913C60.1611 33.627 59.8461 34.236 59.4261 34.74C59.0201 35.244 58.5161 35.629 57.9141 35.895C57.3261 36.161 56.6471 36.294 55.8771 36.294C55.4431 36.294 55.0861 36.259 54.8061 36.189C54.5261 36.133 54.2461 36.035 53.9661 35.895V40.2H51.2361V25.5ZM55.9191 27.516C55.3871 27.516 54.9671 27.649 54.6591 27.915C54.3651 28.181 54.1341 28.58 53.9661 29.112V33.48C54.1621 33.634 54.3721 33.76 54.5961 33.858C54.8341 33.942 55.1421 33.984 55.5201 33.984C56.3041 33.984 56.8921 33.711 57.2841 33.165C57.6761 32.605 57.8721 31.688 57.8721 30.414C57.8721 29.49 57.7181 28.776 57.4101 28.272C57.1021 27.768 56.6051 27.516 55.9191 27.516ZM68.7299 31.884H65.3069V36H62.5769V25.5H65.3069V29.448H68.7299V25.5H71.4599V36H68.7299V31.884ZM73.7932 26.109C74.3532 25.857 75.0182 25.661 75.7882 25.521C76.5582 25.367 77.3632 25.29 78.2032 25.29C78.9312 25.29 79.5402 25.381 80.0302 25.563C80.5202 25.731 80.9052 25.976 81.1852 26.298C81.4792 26.62 81.6822 27.005 81.7942 27.453C81.9202 27.901 81.9832 28.405 81.9832 28.965C81.9832 29.581 81.9622 30.204 81.9202 30.834C81.8782 31.45 81.8502 32.059 81.8362 32.661C81.8362 33.263 81.8572 33.851 81.8992 34.425C81.9412 34.985 82.0462 35.517 82.2142 36.021H79.9882L79.5472 34.572H79.4422C79.1622 35.006 78.7702 35.384 78.2662 35.706C77.7762 36.014 77.1392 36.168 76.3552 36.168C75.8652 36.168 75.4242 36.098 75.0322 35.958C74.6402 35.804 74.3042 35.594 74.0242 35.328C73.7442 35.048 73.5272 34.726 73.3732 34.362C73.2192 33.984 73.1422 33.564 73.1422 33.102C73.1422 32.458 73.2822 31.919 73.5622 31.485C73.8562 31.037 74.2692 30.68 74.8012 30.414C75.3472 30.134 75.9912 29.945 76.7332 29.847C77.4892 29.735 78.3292 29.7 79.2532 29.742C79.3512 28.958 79.2952 28.398 79.0852 28.062C78.8752 27.712 78.4062 27.537 77.6782 27.537C77.1322 27.537 76.5512 27.593 75.9352 27.705C75.3332 27.817 74.8362 27.964 74.4442 28.146L73.7932 26.109ZM77.2582 33.921C77.8042 33.921 78.2382 33.802 78.5602 33.564C78.8822 33.312 79.1202 33.046 79.2742 32.766V31.401C78.8402 31.359 78.4202 31.352 78.0142 31.38C77.6222 31.408 77.2722 31.471 76.9642 31.569C76.6562 31.667 76.4112 31.807 76.2292 31.989C76.0472 32.171 75.9562 32.402 75.9562 32.682C75.9562 33.074 76.0682 33.382 76.2922 33.606C76.5302 33.816 76.8522 33.921 77.2582 33.921ZM91.8341 27.915H88.9151V36H86.1011V27.915H83.0981V25.5H91.8341V27.915ZM99.3725 31.212L99.4775 29.721H99.4145L98.5115 31.254L94.7735 36H93.0515V25.5H95.7815V30.498L95.6555 31.926H95.7395L96.6005 30.435L100.38 25.5H102.102V36H99.3725V31.212ZM104.495 25.521C104.985 25.479 105.573 25.437 106.259 25.395C106.959 25.353 107.708 25.332 108.506 25.332C110.046 25.332 111.138 25.556 111.782 26.004C112.44 26.438 112.769 27.096 112.769 27.978C112.769 28.468 112.629 28.944 112.349 29.406C112.069 29.868 111.628 30.204 111.026 30.414V30.498C111.782 30.666 112.328 30.967 112.664 31.401C113 31.821 113.168 32.367 113.168 33.039C113.168 34.089 112.762 34.873 111.95 35.391C111.152 35.909 109.864 36.168 108.086 36.168C107.498 36.168 106.875 36.147 106.217 36.105C105.559 36.077 104.985 36.035 104.495 35.979V25.521ZM107.162 33.9C107.358 33.928 107.54 33.949 107.708 33.963C107.876 33.977 108.086 33.984 108.338 33.984C109.094 33.984 109.633 33.879 109.955 33.669C110.277 33.459 110.438 33.137 110.438 32.703C110.438 32.339 110.298 32.045 110.018 31.821C109.752 31.583 109.269 31.464 108.569 31.464H107.162V33.9ZM108.611 29.784C109.059 29.784 109.423 29.679 109.703 29.469C109.997 29.245 110.144 28.965 110.144 28.629C110.144 28.265 110.018 27.992 109.766 27.81C109.528 27.614 109.087 27.516 108.443 27.516C108.121 27.516 107.862 27.523 107.666 27.537C107.484 27.551 107.316 27.565 107.162 27.579V29.784H108.611ZM115.034 26.109C115.594 25.857 116.259 25.661 117.029 25.521C117.799 25.367 118.604 25.29 119.444 25.29C120.172 25.29 120.781 25.381 121.271 25.563C121.761 25.731 122.146 25.976 122.426 26.298C122.72 26.62 122.923 27.005 123.035 27.453C123.161 27.901 123.224 28.405 123.224 28.965C123.224 29.581 123.203 30.204 123.161 30.834C123.119 31.45 123.091 32.059 123.077 32.661C123.077 33.263 123.098 33.851 123.14 34.425C123.182 34.985 123.287 35.517 123.455 36.021H121.229L120.788 34.572H120.683C120.403 35.006 120.011 35.384 119.507 35.706C119.017 36.014 118.38 36.168 117.596 36.168C117.106 36.168 116.665 36.098 116.273 35.958C115.881 35.804 115.545 35.594 115.265 35.328C114.985 35.048 114.768 34.726 114.614 34.362C114.46 33.984 114.383 33.564 114.383 33.102C114.383 32.458 114.523 31.919 114.803 31.485C115.097 31.037 115.51 30.68 116.042 30.414C116.588 30.134 117.232 29.945 117.974 29.847C118.73 29.735 119.57 29.7 120.494 29.742C120.592 28.958 120.536 28.398 120.326 28.062C120.116 27.712 119.647 27.537 118.919 27.537C118.373 27.537 117.792 27.593 117.176 27.705C116.574 27.817 116.077 27.964 115.685 28.146L115.034 26.109ZM118.499 33.921C119.045 33.921 119.479 33.802 119.801 33.564C120.123 33.312 120.361 33.046 120.515 32.766V31.401C120.081 31.359 119.661 31.352 119.255 31.38C118.863 31.408 118.513 31.471 118.205 31.569C117.897 31.667 117.652 31.807 117.47 31.989C117.288 32.171 117.197 32.402 117.197 32.682C117.197 33.074 117.309 33.382 117.533 33.606C117.771 33.816 118.093 33.921 118.499 33.921Z" fill="#008425"/>
</svg>
