<svg width="136" height="72" viewBox="0 0 136 72" fill="none" xmlns="http://www.w3.org/2000/svg">
<path d="M70.0875 44.4674C70.8106 44.4674 71.0516 44.7888 70.6499 45.5118C70.4892 45.8332 70.3285 46.0742 70.2482 46.3955C70.1678 46.7169 70.0875 46.9579 69.9268 47.2793C69.7661 47.6006 69.6858 47.8417 69.6055 48.0023C69.5251 48.163 69.3644 48.404 69.2841 48.6451C69.1234 48.8861 69.0431 49.0468 68.8824 49.2074C68.7217 49.3681 68.6414 49.5288 68.4807 49.6895C68.32 49.9305 68.2397 50.0912 68.079 50.3322C67.9183 50.4929 67.838 50.7339 67.6773 51.0553C67.5166 51.3766 67.2756 51.698 67.1149 52.0193C66.9543 52.421 66.7132 52.7424 66.6329 52.9834C66.5526 53.0638 66.4722 53.2244 66.4722 53.3048C66.3919 53.3851 66.3115 53.4655 66.3115 53.6261C65.7492 54.2689 65.2671 54.8312 64.7851 55.4739C64.303 56.0363 63.7407 56.679 63.2586 57.3218C63.0176 57.6431 62.7766 57.8841 62.6159 58.2055C62.4552 58.5269 62.2142 58.8482 61.9732 59.1696C61.4108 59.973 60.8484 60.696 60.2057 61.3388C59.563 61.9815 58.9203 62.7045 58.1972 63.4276C57.8759 63.8293 57.4742 64.1506 56.9921 64.472C56.5101 64.7934 56.028 65.0344 55.3853 65.1147C55.1443 65.1951 54.9033 65.2754 54.7426 65.4361C54.5819 65.5968 54.4212 65.6771 54.1802 65.8378C53.6179 66.2395 52.9751 66.4002 52.4128 66.4002C52.2521 66.3198 52.0111 66.3198 51.8504 66.3198C51.6897 66.3198 51.4487 66.3198 51.288 66.2395C51.047 66.1591 50.806 66.1591 50.5649 66.0788C50.3239 65.9985 50.0829 65.9985 49.6812 66.0788C49.1188 66.1591 48.5564 66.0788 47.9941 65.8378C47.4317 65.5968 46.789 65.2754 46.2266 64.954C45.6642 64.5523 45.1018 64.1506 44.6198 63.7489C44.1378 63.3472 43.6557 62.9456 43.254 62.7045C42.4506 62.0618 41.8882 61.3388 41.4865 60.5354C41.0848 59.732 40.8438 58.8482 40.7635 57.9645C40.6028 56.7594 40.5225 55.4739 40.6028 54.3492C40.6831 53.1441 40.8438 51.939 41.1652 50.8142C41.7276 48.8057 42.3703 46.7972 43.1737 44.8691C43.9771 42.9409 44.9412 41.0128 45.9052 39.165C46.6283 37.7189 47.4317 36.4334 48.3154 35.148C49.1992 33.8625 50.1632 32.5771 51.1273 31.2917C52.4931 29.6045 53.9392 28.1584 55.6263 27.0337C55.8674 26.873 56.1084 26.7123 56.3494 26.4713C56.5101 26.3106 56.7511 26.0696 57.0725 25.9089C58.2776 25.0252 59.563 24.3021 60.8484 23.8201C61.3305 23.6594 61.6518 23.579 61.9732 23.6594C62.5356 23.7397 63.1783 23.8201 63.821 23.8201C64.4637 23.8201 65.0261 23.9004 65.5885 24.2218C65.9098 24.3824 66.2312 24.5431 66.6329 24.7038C67.0346 24.8645 67.2756 25.1055 67.597 25.5072C67.7576 25.8286 67.9183 26.0696 68.1594 26.3106C68.4004 26.5516 68.6414 26.7926 68.8021 27.114C68.9627 27.4354 69.1234 27.6764 69.2038 27.9977C69.2841 28.3191 69.3644 28.5601 69.3644 28.8815C69.4448 29.2028 69.4448 29.5242 69.4448 29.9259C69.4448 30.2472 69.4448 30.5686 69.6055 30.9703C69.6858 31.2917 69.6055 31.613 69.4448 32.0147C69.2841 32.3361 69.2038 32.5771 69.2038 32.8181C69.2038 33.0591 69.1234 33.3002 68.9627 33.6215C68.9627 33.7019 68.8824 33.8625 68.8021 33.9429C68.2397 34.5856 67.838 35.3087 67.4363 35.9514C67.0346 36.5941 66.6329 37.3172 66.1509 38.0402L65.5081 37.9599C65.2671 38.2812 64.9458 38.5222 64.7047 38.8436C64.4637 39.165 64.2227 39.4863 64.1424 39.888C64.062 40.129 63.9817 40.2897 63.7407 40.4504C63.58 40.6111 63.339 40.7718 63.2586 40.9324C62.6962 41.4948 62.2142 42.0572 61.7322 42.6196C61.2501 43.182 60.6877 43.7443 60.2057 44.3067C59.563 44.9494 58.9203 45.5118 58.2776 46.1545C57.7152 46.7169 56.9921 47.3596 56.2691 47.922C55.9477 48.2434 55.546 48.4844 55.1443 48.6451C54.7426 48.8057 54.3409 49.0468 53.9392 49.2878C53.3768 49.6091 52.8145 49.9305 52.2521 50.2519C51.6897 50.6536 51.2077 50.9749 50.6453 51.3766C50.4846 51.457 50.4846 51.457 50.4846 51.5373C50.4846 51.5373 50.4043 51.6176 50.3239 51.6176C49.2795 51.698 48.7171 52.0997 48.6368 52.9834C48.5564 53.6261 48.4761 54.1885 48.3154 54.8312C48.1547 55.3936 48.1547 56.0363 48.3154 56.679C48.3958 57.0004 48.3958 57.3218 48.3958 57.7235C48.3958 58.0448 48.3958 58.3662 48.3958 58.7679C48.3958 59.2499 48.4761 59.6516 48.7171 60.0533V60.1337C48.8778 60.214 49.0385 60.455 49.2795 60.7764C49.4402 60.8567 49.4402 60.937 49.4402 61.0174C49.5205 61.0174 49.6009 61.0174 49.6009 61.0977V61.1781C50.0829 61.5798 50.5649 61.5798 51.1273 61.2584C52.0914 60.7764 53.1358 60.214 54.0999 59.6516C55.064 59.0892 56.028 58.4465 56.8314 57.6431C57.1528 57.3218 57.4742 57.0807 57.7955 56.7594C58.1169 56.438 58.4382 56.1167 58.7596 55.8756C59.2416 55.3936 59.6433 54.9919 60.1254 54.5902C60.5271 54.1885 61.0091 53.7065 61.4911 53.3048C61.9732 52.9031 62.3749 52.5014 62.8569 52.0997C63.2586 51.698 63.7407 51.2963 64.1424 50.8142C64.7047 50.1715 65.3475 49.5288 65.9098 48.8861C66.4722 48.2434 67.1149 47.6006 67.6773 46.8776C67.9183 46.5562 68.1593 46.3152 68.4004 45.9939C68.6414 45.6725 68.8824 45.3511 69.0431 45.1101C69.2038 44.6281 69.6055 44.4674 70.0875 44.4674ZM53.6982 39.7273C53.5375 40.129 53.3768 40.5307 53.2162 40.9324C53.0555 41.3341 52.8145 41.7358 52.5734 42.1375C53.1358 41.6555 53.6179 41.2538 54.0999 40.8521C54.5819 40.4504 55.064 40.0487 55.546 39.5667C56.5101 38.6026 57.3938 37.6385 58.2776 36.5941C59.1613 35.5497 59.804 34.5053 60.3664 33.3805C60.6074 32.8985 60.9288 32.4164 61.1698 31.9344C61.4108 31.4523 61.6518 30.9703 61.8928 30.4883C62.0535 30.1669 62.1339 29.8456 62.2945 29.4439C62.4552 29.1225 62.4552 28.8011 62.4552 28.3994H62.1339C61.8125 28.6405 61.4911 28.8011 61.1698 29.0422C60.8484 29.2028 60.6074 29.4439 60.2861 29.7652C59.8844 30.1669 59.563 30.5686 59.2416 30.9703C58.9203 31.372 58.5989 31.7737 58.2776 32.1754C57.9562 32.6574 57.6348 33.0591 57.3135 33.4608C56.9921 33.8625 56.5904 34.2642 56.1887 34.7463C55.6263 35.2283 55.305 35.871 55.064 36.5941C54.9836 36.9155 54.9033 37.1565 54.9033 37.3172C54.8229 37.4778 54.7426 37.7189 54.5819 37.9599C54.4212 38.2812 54.2606 38.5222 54.0999 38.8436C54.0196 39.165 53.8589 39.406 53.6982 39.7273Z" fill="#008425"/>
<path d="M75.6312 62.7852C75.3099 62.7049 74.9885 62.6245 74.6672 62.4639C74.3458 62.3032 74.1048 62.1425 73.7834 61.9818C73.3817 61.6605 73.0604 61.4998 72.8193 61.4998C72.6587 61.4195 72.4176 61.2588 72.257 61.1784C72.0963 61.0981 71.9356 60.9374 71.7749 60.7767C71.4536 60.4554 71.2125 60.134 71.0519 59.9733C70.8912 59.8127 70.7305 59.5716 70.5698 59.3306C70.4091 59.0896 70.3288 58.8486 70.1681 58.5272C70.0075 58.2059 69.8468 57.8042 69.6861 57.2418C69.3647 56.4384 69.0434 55.635 68.8023 54.7513C68.5613 53.8675 68.4007 52.9838 68.4007 52.0197C68.481 51.4573 68.481 50.8949 68.481 50.3326C68.481 49.7702 68.4007 49.2078 68.3203 48.6454C68.3203 48.0027 68.3203 47.4403 68.4007 46.7976C68.4007 46.1549 68.481 45.5925 68.5613 44.9498C68.722 44.0661 68.8024 43.1823 68.963 42.2986C69.1237 41.4148 69.2844 40.5311 69.4451 39.6474C69.6058 38.7636 69.8468 37.9602 70.0074 37.1568C70.1681 36.3534 70.4091 35.4697 70.7305 34.6663C70.8912 34.3449 70.9715 34.0236 71.1322 33.6219C71.2929 33.3005 71.3732 32.8988 71.5339 32.4971C71.6946 32.0151 71.8553 31.6134 72.0159 31.2117C72.1766 30.81 72.4176 30.4083 72.498 29.9262C73.221 27.9178 74.0244 25.9896 74.9082 24.1418C75.4706 23.0974 75.9526 21.9726 76.515 20.9282C77.0774 19.8838 77.7201 18.8394 78.3628 17.7949C78.9252 16.9112 79.4875 16.1078 80.0499 15.2241C80.6123 14.3403 81.255 13.5369 81.9781 12.7335C82.8618 11.6891 83.6652 10.725 84.3883 9.68062C84.7096 9.19858 85.1113 8.79688 85.513 8.47552C85.9147 8.07382 86.3164 7.75246 86.6378 7.35077C86.9591 6.94907 87.2805 6.54737 87.6822 6.22601C88.0839 5.90465 88.4053 5.58329 88.7266 5.18159C89.048 4.53887 89.53 4.21751 90.0121 4.21751C90.1727 4.21751 90.2531 4.21751 90.3334 4.13717C90.4138 4.05683 90.4941 4.05683 90.6548 3.97649C91.5385 3.49445 92.4222 3.1731 93.3863 3.1731C94.4307 3.1731 95.2341 3.49446 95.7965 4.05683C95.9572 4.21751 96.0375 4.37819 96.1982 4.45853C96.3589 4.53887 96.4392 4.69955 96.5999 4.86023C97.0016 5.50295 97.323 6.14567 97.4837 6.78839C97.6443 7.43111 97.6443 8.15416 97.4033 8.95756C97.2426 9.60028 97.0016 10.3233 96.8409 11.0464C96.6803 11.7695 96.4392 12.4122 96.1982 13.0549C95.9572 13.6976 95.7162 14.26 95.4752 14.742C95.2341 15.2241 94.9931 15.7864 94.7521 16.3488C94.5914 16.6702 94.5111 16.9112 94.3504 17.1522C94.1897 17.3932 94.1094 17.7146 93.9487 17.9556C93.7077 18.5983 93.3863 19.3214 92.9846 19.8838C92.5829 20.5265 92.1812 21.1692 91.6992 21.7316C91.5385 21.9726 91.4582 22.1333 91.2975 22.3743C91.1368 22.535 91.0565 22.776 90.8958 23.0974C90.7351 23.4187 90.5744 23.5794 90.3334 23.5794C90.0924 23.5794 89.8514 23.7401 89.771 24.0614C89.6907 24.5435 89.53 24.9452 89.289 25.2665C89.048 25.6682 88.7266 25.9896 88.4856 26.3913C87.9232 27.275 87.5215 28.1588 87.1198 29.0425C86.8788 29.6049 86.6378 30.1673 86.3968 30.6493C86.1557 31.1313 85.9147 31.6134 85.513 32.0954C85.1917 32.5775 84.8703 32.9792 84.6293 33.4612C84.3883 33.9432 84.0669 34.3449 83.8259 34.827C83.4242 35.4697 83.0225 36.1124 82.6208 36.7551C82.2191 37.3979 81.8174 38.1209 81.3354 38.7636C81.1747 39.0046 81.0943 39.2457 80.9337 39.4063C80.773 39.6474 80.6926 39.808 80.532 39.9687C79.9696 40.7721 79.4875 41.5755 79.0055 42.2986C78.5235 43.0216 77.9611 43.7447 77.238 44.4678C77.1577 44.5481 77.0773 44.7088 76.8363 44.8694C76.4346 45.1908 76.1133 45.4318 75.8723 45.8335C75.6312 46.1549 75.4706 46.5566 75.3099 47.0386C75.1492 47.6813 74.9885 48.4044 74.9885 49.0471C74.9885 49.6898 74.9082 50.4129 74.8278 51.0556C74.8278 51.377 74.8278 51.618 74.7475 51.859C74.7475 52.1 74.7475 52.3411 74.8278 52.6624C75.1492 54.5102 75.7919 56.1974 76.756 57.5631C76.997 58.0452 77.479 58.3665 78.1218 58.5272H78.4431C79.0055 58.7682 79.4072 58.8486 79.8089 58.6879C80.2106 58.6076 80.6123 58.3665 81.014 58.1255C81.496 57.9648 81.9781 57.7238 82.5405 57.3221C83.1028 56.8401 83.6652 56.358 84.2276 55.7957C84.79 55.3136 85.1917 54.7512 85.5934 54.1889C85.9951 53.6265 86.3968 53.0641 86.8788 52.5017C87.2002 52.1 87.5215 51.6983 87.7625 51.2163C88.0036 50.7343 88.3249 50.3326 88.5659 49.8505C88.7266 49.6095 88.807 49.4488 88.9676 49.2078C89.1283 49.0471 89.289 48.8864 89.4497 48.7258C89.8514 48.2437 90.1727 47.6813 90.3334 47.1993C90.4941 46.7976 90.7351 46.3959 90.8958 46.0745C91.0565 45.6728 91.3778 45.3515 91.6992 45.1105L91.8599 44.7891C92.1009 44.3071 92.4222 43.9054 92.8239 43.5037C93.2256 43.102 93.547 42.7003 93.8684 42.2182C94.7521 41.3345 95.6358 40.6114 96.5999 40.0491C97.0016 39.7277 97.2426 39.6474 97.4033 39.808C97.564 39.8884 97.564 40.2097 97.564 40.7721C97.4033 41.2542 97.1623 41.6559 96.9213 41.9772C96.6803 42.3789 96.4392 42.7806 96.1982 43.1823C95.7965 43.9857 95.3948 44.7891 94.9128 45.5122C94.4307 46.3156 94.029 47.0386 93.7077 47.842C93.4667 48.4847 93.1453 49.1275 92.9043 49.7702C92.6633 50.3326 92.3419 50.9753 91.9402 51.618V51.6983C91.7795 52.3411 91.5385 52.9034 91.2171 53.4658C90.8958 54.0282 90.4941 54.5102 90.0924 55.0726C89.8514 55.394 89.6104 55.635 89.3693 55.9563C89.1283 56.2777 88.8873 56.5991 88.6463 56.8401C88.4856 57.0008 88.4053 57.1614 88.2446 57.2418C88.0839 57.3221 88.0036 57.4828 87.8429 57.5631C87.6019 58.1255 87.2805 58.6076 86.8788 59.0093C86.4771 59.411 85.9951 59.8127 85.513 60.2144C85.1113 60.5357 84.7096 60.7767 84.3883 61.0178C83.9866 61.2588 83.5849 61.5801 83.1028 61.8212C81.8977 62.4639 80.6123 62.7852 79.3269 62.8656C78.7645 62.9459 78.2824 63.0262 77.7201 62.9459C76.8363 62.9459 76.2739 62.8656 75.6312 62.7852ZM90.7351 11.2071C90.0121 12.1712 89.289 13.1352 88.7266 14.019C88.0839 14.983 87.4412 15.8668 86.8788 16.8309C86.4771 17.4736 86.0754 18.1163 85.754 18.759C85.3523 19.4017 84.9506 20.0445 84.3883 20.6068C83.4242 21.6512 82.7815 22.776 82.3798 24.0614C82.2191 24.6238 82.0584 25.1862 81.8977 25.6682C81.7371 26.1503 81.4157 26.7127 81.014 27.1947C80.6926 27.5161 80.4516 27.7571 80.4516 27.9981C80.2909 28.3998 80.0499 28.8015 79.8892 29.1229C79.7286 29.4442 79.6482 29.8459 79.6482 30.3279C79.4875 30.8903 79.4072 31.3724 79.2465 31.8544C79.0858 32.1758 79.0055 32.4971 78.8448 32.8988C78.6841 33.2202 78.6038 33.5415 78.4431 33.9432C78.4431 34.0236 78.4431 34.1843 78.3628 34.2646C78.2824 34.3449 78.3628 34.5056 78.4431 34.586C78.7645 34.4253 79.0055 34.1039 79.2465 33.5415C79.3269 33.4612 79.3269 33.3809 79.3269 33.3005C79.3269 33.2202 79.3269 33.2202 79.4072 33.1398C79.6482 32.9792 79.8892 32.7381 79.9696 32.5775C80.0499 32.3364 80.2106 32.0954 80.2909 31.7741C80.2909 31.533 80.4516 31.292 80.6926 30.8903C81.3354 30.0869 81.8977 29.2032 82.2994 28.0784L82.6208 27.5964C83.3439 26.552 83.9866 25.4272 84.6293 24.2221C85.1917 23.0974 85.8344 21.8923 86.5574 20.6872C86.8788 20.1248 87.2002 19.5624 87.4412 19C87.6822 18.4377 88.0036 17.8753 88.3249 17.2326C88.4856 17.0719 88.5659 16.9112 88.6463 16.8309C88.7266 16.7505 88.807 16.5898 88.807 16.5095C88.9676 16.3488 89.048 16.1881 89.1283 16.0275C89.2087 15.8668 89.289 15.6258 89.3693 15.4651C89.4497 15.1437 89.53 14.9027 89.6907 14.6617C89.8514 14.4207 89.9317 14.1796 90.0924 13.9386C90.2531 13.4566 90.4941 12.9746 90.7351 12.4925C90.9761 12.0105 91.1368 11.5284 91.2975 11.0464C91.0565 10.9661 90.8958 11.0464 90.7351 11.2071Z" fill="#008425"/>
<path d="M95.3939 62.7852C95.0726 62.7049 94.7512 62.6245 94.4299 62.4639C94.1085 62.3032 93.8675 62.1425 93.5461 61.9818C93.1444 61.6605 92.8231 61.4998 92.582 61.4998C92.4214 61.4195 92.1803 61.2588 92.0197 61.1784C91.859 61.0981 91.6983 60.9374 91.5376 60.7767C91.2163 60.4554 90.9752 60.134 90.8146 59.9733C90.6539 59.8127 90.4932 59.5716 90.3325 59.3306C90.1718 59.0896 90.0915 58.8486 89.9308 58.5272C89.7701 58.2059 89.6095 57.8042 89.4488 57.2418C89.1274 56.4384 88.8061 55.635 88.5651 54.7513C88.324 53.8675 88.1634 52.9838 88.1634 52.0197C88.2437 51.4573 88.2437 50.8949 88.2437 50.3326C88.2437 49.7702 88.1633 49.2078 88.083 48.6454C88.083 48.0027 88.083 47.4403 88.1634 46.7976C88.1634 46.1549 88.2437 45.5925 88.324 44.9498C88.4847 44.0661 88.565 43.1823 88.7257 42.2986C88.8864 41.4148 89.0471 40.5311 89.2078 39.6474C89.3684 38.7636 89.6095 37.9602 89.7701 37.1568C89.9308 36.3534 90.1718 35.4697 90.4932 34.6663C90.6539 34.3449 90.7342 34.0236 90.8949 33.6219C91.0556 33.3005 91.1359 32.8988 91.2966 32.4971C91.4573 32.0151 91.618 31.6134 91.7786 31.2117C91.9393 30.81 92.1803 30.4083 92.2607 29.9262C92.9837 27.9178 93.7871 25.9896 94.6709 24.1418C95.2333 23.0974 95.7153 21.9726 96.2777 20.9282C96.84 19.8838 97.4828 18.8394 98.1255 17.7949C98.6879 16.9112 99.2502 16.1078 99.8126 15.2241C100.375 14.3403 101.018 13.5369 101.741 12.7335C102.625 11.6891 103.428 10.725 104.151 9.68062C104.472 9.19858 104.874 8.79688 105.276 8.47552C105.677 8.07382 106.079 7.75246 106.4 7.35077C106.722 6.94907 107.043 6.54737 107.445 6.22601C107.847 5.90465 108.168 5.58329 108.489 5.18159C108.811 4.53887 109.293 4.21751 109.775 4.21751C109.935 4.21751 110.016 4.21751 110.096 4.13717C110.176 4.05683 110.257 4.05683 110.417 3.97649C111.301 3.49445 112.185 3.1731 113.149 3.1731C114.193 3.1731 114.997 3.49446 115.559 4.05683C115.72 4.21751 115.8 4.37819 115.961 4.45853C116.122 4.53887 116.202 4.69955 116.363 4.86023C116.764 5.50295 117.086 6.14567 117.246 6.78839C117.407 7.43111 117.407 8.15416 117.166 8.95756C117.005 9.60028 116.764 10.3233 116.604 11.0464C116.443 11.7695 116.202 12.4122 115.961 13.0549C115.72 13.6976 115.479 14.26 115.238 14.742C114.997 15.2241 114.756 15.7864 114.515 16.3488C114.354 16.6702 114.274 16.9112 114.113 17.1522C113.952 17.3932 113.872 17.7146 113.711 17.9556C113.47 18.5983 113.149 19.3214 112.747 19.8838C112.346 20.5265 111.944 21.1692 111.462 21.7316C111.301 21.9726 111.221 22.1333 111.06 22.3743C110.9 22.535 110.819 22.776 110.658 23.0974C110.498 23.4187 110.337 23.5794 110.096 23.5794C109.855 23.5794 109.614 23.7401 109.534 24.0614C109.453 24.5435 109.293 24.9452 109.052 25.2665C108.811 25.6682 108.489 25.9896 108.248 26.3913C107.686 27.275 107.284 28.1588 106.883 29.0425C106.642 29.6049 106.4 30.1673 106.159 30.6493C105.918 31.1313 105.677 31.6134 105.276 32.0954C104.954 32.5775 104.633 32.9792 104.392 33.4612C104.151 33.9432 103.83 34.3449 103.589 34.827C103.187 35.4697 102.785 36.1124 102.383 36.7551C101.982 37.3979 101.58 38.1209 101.098 38.7636C100.937 39.0046 100.857 39.2457 100.696 39.4063C100.536 39.6474 100.455 39.808 100.295 39.9687C99.7323 40.7721 99.2502 41.5755 98.7682 42.2986C98.2862 43.102 97.7238 43.7447 97.0007 44.4678C96.9204 44.5481 96.84 44.7088 96.599 44.8694C96.1973 45.1908 95.876 45.4318 95.6349 45.8335C95.3939 46.1549 95.2333 46.5566 95.0726 47.0386C94.9119 47.6813 94.7512 48.4044 94.7512 49.0471C94.7512 49.6898 94.6709 50.4129 94.5905 51.0556C94.5905 51.377 94.5905 51.618 94.5102 51.859C94.5102 52.1 94.5102 52.3411 94.5905 52.6624C94.9119 54.5102 95.5546 56.1974 96.5187 57.5631C96.7597 58.0452 97.2417 58.3665 97.8845 58.5272H98.2058C98.7682 58.7682 99.1699 58.8486 99.5716 58.6879C99.9733 58.6076 100.375 58.3665 100.777 58.1255C101.259 57.9648 101.741 57.7238 102.303 57.3221C102.866 56.8401 103.428 56.358 103.99 55.7957C104.553 55.3136 104.954 54.7512 105.356 54.1889C105.758 53.6265 106.159 53.0641 106.642 52.5017C106.963 52.1 107.284 51.6983 107.525 51.2163C107.766 50.7343 108.088 50.3326 108.329 49.8505C108.489 49.6095 108.57 49.4488 108.73 49.2078C108.891 49.0471 109.052 48.8864 109.212 48.7258C109.614 48.2437 109.935 47.6813 110.096 47.1993C110.257 46.7976 110.498 46.3959 110.658 46.0745C110.819 45.6728 111.141 45.3515 111.462 45.1105L111.623 44.7891C111.864 44.3071 112.185 43.9054 112.587 43.5037C112.988 43.102 113.31 42.7003 113.631 42.2182C114.515 41.3345 115.399 40.6114 116.363 40.0491C116.764 39.7277 117.005 39.6474 117.166 39.808C117.327 39.8884 117.327 40.2097 117.327 40.7721C117.166 41.2542 116.925 41.6559 116.684 41.9772C116.443 42.3789 116.202 42.7806 115.961 43.1823C115.559 43.9857 115.158 44.7891 114.675 45.5122C114.193 46.3156 113.792 47.0386 113.47 47.842C113.229 48.4847 112.908 49.1275 112.667 49.7702C112.426 50.3326 112.105 50.9753 111.703 51.618V51.6983C111.542 52.3411 111.301 52.9034 110.98 53.4658C110.658 54.0282 110.257 54.5102 109.855 55.0726C109.614 55.394 109.373 55.635 109.132 55.9563C108.891 56.2777 108.65 56.5991 108.409 56.8401C108.248 57.0008 108.168 57.1614 108.007 57.2418C107.847 57.3221 107.766 57.4828 107.606 57.5631C107.365 58.1255 107.043 58.6076 106.642 59.0093C106.24 59.411 105.758 59.8127 105.276 60.2144C104.874 60.5357 104.472 60.7767 104.151 61.0178C103.749 61.2588 103.348 61.5801 102.866 61.8212C101.66 62.4639 100.375 62.7852 99.0896 62.8656C98.5272 62.9459 98.0451 63.0262 97.4828 62.9459C96.599 62.9459 95.9563 62.8656 95.3939 62.7852ZM110.417 11.2071C109.694 12.1712 108.971 13.1352 108.409 14.019C107.766 14.983 107.124 15.8668 106.561 16.8309C106.159 17.4736 105.758 18.1163 105.436 18.759C105.035 19.4017 104.633 20.0445 104.071 20.6068C103.107 21.6512 102.464 22.776 102.062 24.0614C101.901 24.6238 101.741 25.1862 101.58 25.6682C101.419 26.1503 101.098 26.7127 100.696 27.1947C100.375 27.5161 100.134 27.7571 100.134 27.9981C99.9733 28.3998 99.7323 28.8015 99.5716 29.1229C99.4109 29.4442 99.3306 29.8459 99.3306 30.3279C99.1699 30.8903 99.0896 31.3724 98.9289 31.8544C98.7682 32.1758 98.6879 32.4971 98.5272 32.8988C98.3665 33.2202 98.2862 33.5415 98.1255 33.9432C98.1255 34.0236 98.1255 34.1843 98.0451 34.2646C97.9648 34.3449 98.0451 34.5056 98.1255 34.586C98.4468 34.4253 98.6879 34.1039 98.9289 33.5415C99.0092 33.4612 99.0092 33.3809 99.0092 33.3005C99.0092 33.2202 99.0092 33.2202 99.0896 33.1398C99.3306 32.9792 99.5716 32.7381 99.6519 32.5775C99.7323 32.3364 99.893 32.0954 99.9733 31.7741C99.9733 31.533 100.134 31.292 100.375 30.8903C101.018 30.0869 101.58 29.2032 101.982 28.0784L102.303 27.5964C103.026 26.552 103.669 25.4272 104.312 24.2221C104.874 23.0974 105.517 21.8923 106.24 20.6872C106.561 20.1248 106.883 19.5624 107.124 19C107.365 18.4377 107.686 17.8753 108.007 17.2326C108.168 17.0719 108.248 16.9112 108.329 16.8309C108.409 16.7505 108.489 16.5898 108.489 16.5095C108.65 16.3488 108.73 16.1881 108.811 16.0275C108.891 15.8668 108.971 15.6258 109.052 15.4651C109.132 15.1437 109.212 14.9027 109.373 14.6617C109.534 14.4207 109.614 14.1796 109.775 13.9386C109.935 13.4566 110.176 12.9746 110.417 12.4925C110.658 12.0105 110.819 11.5284 110.98 11.0464C110.819 10.9661 110.658 11.0464 110.417 11.2071Z" fill="#008425"/>
<path d="M120.864 63.8276C120.221 63.4259 120.864 63.0242 118.936 62.7831C118.775 62.7831 118.695 62.6225 118.775 62.3814C119.016 61.7387 117.972 62.0601 116.445 61.096V61.0157C116.365 60.9353 116.285 60.9353 116.285 60.9353C116.285 60.855 116.204 60.7746 116.124 60.6943C115.883 60.3729 115.642 60.1319 115.561 60.0516V59.9712C115.401 59.5695 115.24 59.1679 115.24 58.6858V57.6414C115.24 57.32 115.24 56.9987 115.16 56.597C114.999 55.9543 114.999 55.3919 115.16 54.7492C115.32 54.1868 115.401 53.5441 115.481 52.9013C115.561 52.0176 116.124 51.6159 117.168 51.5356C117.329 51.5356 117.329 51.5356 117.329 51.4552C117.329 51.4552 117.409 51.3749 117.49 51.2945C118.052 50.8928 118.534 50.4912 119.096 50.1698C119.659 49.7681 120.221 49.4467 120.784 49.2057C121.185 48.9647 121.587 48.804 121.989 48.563C122.39 48.4023 122.792 48.1613 123.113 47.8399C123.836 47.2776 124.479 46.7152 125.122 46.0725C125.684 45.5101 126.327 44.8674 127.05 44.2246C127.612 43.6623 128.094 43.0999 128.577 42.5375C129.059 41.9751 129.621 41.4128 130.103 40.8504C130.264 40.6897 130.424 40.529 130.585 40.3683C130.746 40.2077 130.906 39.9666 130.987 39.806C131.147 39.4043 131.308 39.0829 131.549 38.7615C131.79 38.4402 132.111 38.1992 132.352 37.8778L132.513 37.5564C132.995 36.8334 133.397 36.1103 133.799 35.4676C134.2 34.8249 134.682 34.1018 135.164 33.4591C135.325 33.3788 135.325 33.2181 135.325 33.1378C135.486 32.8164 135.566 32.5754 135.566 32.3344C135.566 32.0933 135.646 31.8523 135.807 31.531C135.968 31.1293 136.048 30.8079 135.968 30.4865C135.807 30.1652 135.807 29.8438 135.807 29.4421C135.807 29.1208 135.807 28.7994 135.727 28.3977C135.646 28.0763 135.566 27.8353 135.566 27.514C135.486 27.1926 135.405 26.9516 135.164 26.6302C135.004 26.3089 134.763 26.0679 134.522 25.8268C134.281 25.5858 134.12 25.3448 133.959 25.0234C133.718 24.7021 133.397 24.4611 132.995 24.22C132.594 24.0594 132.272 23.8987 131.951 23.738C131.388 23.4166 130.826 23.3363 130.183 23.3363C129.541 23.3363 128.898 23.3363 128.335 23.1756C128.094 23.0953 127.693 23.1756 127.211 23.3363C125.845 23.8183 124.64 24.5414 123.435 25.4251C123.194 25.5858 122.953 25.7465 122.712 25.9875C122.551 26.1482 122.31 26.3892 121.989 26.5499C120.302 27.6746 118.855 29.1208 117.49 30.8079C116.526 32.0933 115.561 33.3788 114.678 34.6642C113.794 35.9496 112.991 37.3154 112.268 38.6812C111.303 40.529 110.339 42.4572 109.536 44.3853C108.733 46.3135 108.01 48.322 107.527 50.3305C107.206 51.5356 106.965 52.7407 106.965 53.8654C106.885 55.0705 106.965 56.2756 107.126 57.4807C107.286 58.3645 107.527 59.2482 107.849 60.0516C108.251 60.855 108.813 61.578 109.616 62.2208C110.018 62.5421 110.5 62.8635 110.982 63.2652C111.464 63.6669 112.027 64.0686 112.589 64.4703C113.151 64.872 113.794 65.113 114.356 65.354C114.919 65.595 115.481 65.6754 116.044 65.595C116.365 65.5147 116.686 65.5147 116.927 65.595C117.168 65.6754 117.409 65.6754 117.65 65.7557C117.811 65.836 118.052 65.836 118.213 65.836C118.373 65.836 118.614 65.595 118.855 65.6754C119.337 65.6754 119.739 65.8361 120.141 65.595C122.631 64.872 121.667 64.2293 120.864 63.8276ZM120.06 40.9307C120.221 40.529 120.382 40.1273 120.543 39.7256C120.703 39.4043 120.864 39.1632 121.025 38.8419C121.185 38.5205 121.426 38.2795 121.507 37.9581C121.667 37.7171 121.748 37.5564 121.828 37.3154C121.908 37.1547 121.989 36.9137 121.989 36.5924C122.149 35.8693 122.551 35.2266 123.113 34.7446C123.515 34.2625 123.917 33.8608 124.238 33.4591C124.56 33.0574 124.881 32.6557 125.202 32.1737C125.524 31.772 125.845 31.3703 126.166 30.9686C126.488 30.5669 126.809 30.1652 127.211 29.7635C127.452 29.4421 127.773 29.2011 128.094 29.0404C128.416 28.8797 128.737 28.6387 129.059 28.3977H129.38C129.38 28.7191 129.3 29.0404 129.219 29.4421C129.059 29.7635 128.978 30.0848 128.818 30.4865C128.657 30.9686 128.416 31.4506 128.094 31.9327C127.853 32.4147 127.532 32.8967 127.291 33.3788C126.729 34.5035 126.086 35.5479 125.202 36.5924C124.319 37.6368 123.435 38.6009 122.471 39.5649C121.989 40.047 121.507 40.4487 121.025 40.8504C120.543 41.2521 119.98 41.6538 119.498 42.1358C119.659 41.7341 119.9 41.3324 120.06 40.9307Z" fill="#008425"/>
<path d="M65.025 1.96884C64.9447 1.8885 64.9447 1.8885 65.025 1.96884C64.9447 1.96884 64.9447 1.96884 64.8643 1.8885C64.7037 1.64748 62.9362 2.6919 63.0969 2.61156C63.1772 2.53122 63.1772 2.45088 63.1772 2.37054C63.1772 2.2902 63.1772 2.12952 63.2575 2.04918C63.4182 1.80816 63.4986 1.64748 63.5789 1.32613C63.3379 1.40647 63.2575 1.24579 63.1772 1.00477C63.0969 0.683407 62.8558 0.603067 62.5345 0.603067C61.9721 0.522727 61.3294 0.522727 60.767 0.522727C60.6063 0.362048 60.3653 0.201368 60.1243 0.201368C59.4816 0.121028 58.8388 0.121028 58.1158 0.201368C57.7944 0.201368 57.4731 0.281708 57.0714 0.442388C56.1073 0.924426 55.2236 1.56714 54.4202 2.2902C53.9381 2.6919 53.4561 3.0936 52.974 3.57564L51.6083 5.02176C51.1262 5.58413 50.6442 6.22685 50.1621 6.86957C49.6801 7.51229 49.2784 8.15501 48.7964 8.87807C48.3947 9.52079 47.993 10.0832 47.5913 10.7259C47.1896 11.3686 46.0648 13.1361 46.0648 13.1361C46.1452 12.8951 42.0478 20.447 40.2804 24.705C38.0308 30.3288 36.2634 35.6312 35.942 36.5953C35.942 36.5953 33.9335 42.2191 33.7728 42.7815C33.5318 43.2635 33.2908 44.0669 33.1301 44.5489C33.0498 44.8703 32.9694 45.1113 32.8088 45.4327C32.7284 45.5934 32.7284 45.6737 32.6481 45.8344C32.3267 46.5574 31.925 47.3608 31.5233 48.0839C31.1216 48.8069 30.7199 49.53 30.3182 50.2531C29.9969 50.7351 29.7558 51.2171 29.3541 51.6992C29.0328 52.1812 28.7114 52.6633 28.3901 53.1453C28.0687 53.6273 27.8277 54.1094 27.5063 54.5111C27.185 54.9128 26.8636 55.3145 26.6226 55.7162C26.0602 56.4392 25.5782 57.0819 25.0158 57.7247C24.4534 58.3674 23.891 58.9298 23.3287 59.4921C23.0876 59.6528 22.927 59.8135 22.7663 59.9742C22.6056 60.1349 22.3646 60.2955 22.1236 60.3759C21.8825 60.5366 21.7219 60.6169 21.5612 60.7776C21.4005 60.9383 21.2398 61.0989 20.9988 61.1793C20.8381 61.34 20.5971 61.4203 20.5168 61.4203C20.3561 61.581 20.1151 61.6613 19.9544 61.6613C19.7937 61.7417 19.5527 61.822 19.392 61.9023C19.2313 61.9827 19.151 62.063 18.9903 62.063C18.9903 61.9827 18.91 61.9023 18.91 61.822C18.8296 61.581 18.8296 61.34 18.8296 61.0186C18.669 60.3759 18.669 59.7332 18.669 59.0101C18.669 58.287 18.669 57.564 18.7493 56.9213C18.8296 56.1982 18.91 55.4751 18.91 54.8324C18.9903 54.2701 19.0707 53.7077 19.151 53.1453C19.2313 52.5829 19.3117 52.1009 19.4724 51.5385C19.633 51.0565 19.7134 50.4941 19.7937 50.012C19.8741 49.53 19.9544 48.9676 20.1151 48.4856C20.2758 47.3608 20.5168 46.4771 20.7578 45.6737C20.9988 44.9506 21.1595 44.3079 21.3202 43.6652C21.4808 43.0225 21.6415 42.3798 21.8022 41.6567C22.0432 40.8533 22.3646 39.8892 22.7663 38.9252C23.168 38.1218 23.4893 37.238 23.8107 36.4346C23.9714 36.0329 24.1321 35.5509 24.3731 34.9885C24.6944 34.3458 25.0158 33.6227 25.2568 33.0603C25.6585 32.1766 29.2738 22.7769 29.9969 18.8402C31.0413 14.1002 30.9609 9.7618 28.0687 8.39603C27.9884 8.39603 27.9884 8.39603 27.908 8.39603C27.667 8.31569 27.426 8.23535 27.185 8.15501H27.1046C26.7029 7.99433 26.3012 7.99433 25.8995 7.99433C25.6585 7.99433 25.4175 8.07467 25.0961 8.07467C24.5338 8.15501 23.891 8.23535 23.168 8.39603C22.7663 8.47637 22.3646 8.63705 21.9629 8.71739C21.7219 8.71739 21.4808 8.79773 21.3202 8.87807C21.0791 9.03875 20.7578 9.11909 20.5168 9.19943C20.4364 9.27977 20.3561 9.27977 20.3561 9.3601C20.2758 9.44044 20.1151 9.44045 20.0347 9.52079C20.0347 9.52079 20.0347 9.44044 20.0347 9.3601C20.2758 9.19943 20.5168 9.11909 20.7578 9.03875C20.8381 8.95841 20.9185 8.95841 20.9185 8.95841C20.9988 8.95841 20.9988 8.87807 20.9988 8.71739C20.7578 8.71739 20.5168 8.79773 20.2758 8.79773C20.0347 8.79773 19.8741 8.87807 19.633 8.95841C19.4724 9.11909 19.392 9.19943 19.392 9.3601C19.392 9.44044 19.3117 9.44044 19.3117 9.44044C19.151 9.44044 18.9903 9.52078 18.7493 9.60112C18.669 9.68146 18.5886 9.7618 18.5083 9.84214C18.3476 9.84214 18.2673 9.92248 18.1066 9.92248C17.8656 10.0028 17.7049 10.0832 17.4639 10.1635C17.2228 10.2438 17.0622 10.4045 16.9015 10.5652C16.8211 10.6455 16.7408 10.6455 16.6605 10.6455C16.5801 10.6455 16.4998 10.7259 16.4998 10.8866C16.4194 10.9669 16.3391 11.1276 16.0981 11.2079C16.0177 11.2883 16.0177 11.2883 15.9374 11.2883C15.9374 11.2883 15.8571 11.2883 15.8571 11.3686C15.7767 11.3686 15.7767 11.4489 15.6964 11.4489L15.7767 11.2883L15.616 11.2079C15.375 11.2883 15.2143 11.3686 15.134 11.4489C14.9733 11.69 14.8126 11.931 14.5716 12.0113C14.3306 12.172 14.0896 12.3327 13.9289 12.5737C13.6879 12.7344 13.5272 12.9754 13.3665 13.1361C13.1255 13.2968 12.9648 13.4574 12.8042 13.6181C12.6435 13.7788 12.4025 14.0198 12.2418 14.2608L12.0811 14.4215C11.9204 14.5822 11.7597 14.6625 11.5991 14.8232C11.4384 14.9036 11.2777 15.0642 11.1974 15.2249C11.1974 15.2249 11.1974 15.2249 11.1974 15.3053C11.2777 15.4659 11.2777 15.4659 11.1974 15.5463C11.117 15.5463 11.117 15.5463 11.0367 15.5463L10.876 15.707C10.876 15.8676 10.876 15.948 10.7957 15.948C10.7153 15.948 10.635 16.0283 10.4743 16.1086C10.4743 16.189 10.4743 16.189 10.4743 16.2693C9.10852 17.4744 7.82309 18.8402 6.69833 20.1256C6.69833 20.1256 5.81459 21.0897 5.41289 21.6521C4.93085 22.2948 4.36848 23.0179 3.8061 23.7409L2.1993 26.0708C1.87794 26.5528 1.55658 27.1152 1.23522 27.5972C0.913865 28.0793 0.672846 28.6417 0.431826 29.1237C0.351487 29.204 0.271147 29.2844 0.271147 29.4451C0.0301274 29.9271 -0.0502124 30.2485 0.0301274 30.4895C0.110467 30.6502 0.190807 30.8912 0.431826 31.0519C0.351487 31.2929 0.351487 31.4536 0.351487 31.6142C0.431826 31.8552 0.592506 32.0963 0.913865 32.3373C1.7976 33.0603 2.68134 33.462 3.72576 33.462C4.44881 33.5424 5.01119 33.3817 5.57357 32.8997C5.81459 32.6586 6.13595 32.257 6.37697 31.6946C6.61799 31.2929 6.85901 30.8912 7.01969 30.5698C7.26071 30.2485 7.42139 29.8468 7.66241 29.5254C8.94784 27.4366 10.9563 24.8657 10.9563 24.8657C15.375 20.0453 21.5612 14.8232 23.7304 15.5463C24.4534 15.7873 24.5338 16.8317 24.3731 18.4385C23.9714 20.688 22.1236 25.9904 20.3561 30.8912C18.4279 35.4705 16.7408 39.5679 16.4998 40.1302C16.4194 40.3713 16.3391 40.6123 16.3391 40.773C16.2588 40.9336 16.2588 41.1747 16.1784 41.4157C16.0177 41.8977 15.8571 42.3798 15.6964 42.7815C15.5357 43.1832 15.375 43.6652 15.2143 44.0669C14.7323 45.1917 14.4913 46.3164 14.3306 47.4412C14.1699 48.5659 13.9289 49.6103 13.5272 50.7351C13.4469 51.0565 13.3665 51.3778 13.2862 51.6992C13.2059 52.0205 13.1255 52.3419 13.0452 52.6633C12.9648 52.9846 12.8845 53.306 12.8845 53.7077C12.8845 54.029 12.8042 54.4307 12.8042 54.7521C12.8042 54.9128 12.8042 55.1538 12.8845 55.3145C12.8845 55.4751 12.9648 55.6358 13.0452 55.7162C13.2059 55.8768 13.2059 56.0375 13.2059 56.3589C13.1255 56.6802 13.1255 57.0016 13.1255 57.323C13.1255 57.6443 13.1255 57.9657 13.0452 58.287L12.9648 58.7691C12.9648 58.9298 12.9648 59.0101 12.9648 59.0904C13.0452 59.0904 13.1255 59.2511 13.0452 59.4921L12.9648 59.9742C13.0452 60.6972 13.1255 61.34 13.2059 61.9827C13.2862 62.6254 13.4469 63.2681 13.5272 63.9108C13.6879 64.3929 13.8486 64.7142 14.0092 64.8749L14.3306 65.4373C14.4109 65.6783 14.5716 65.9193 14.652 66.08C14.7323 66.2407 14.893 66.4817 14.9733 66.7227C15.134 67.0441 15.375 67.2851 15.616 67.4458C15.8571 67.6065 16.0981 67.8475 16.2588 68.1688H16.3391C16.4998 68.1688 16.6605 68.2492 16.8211 68.4099C16.9015 68.4902 16.9818 68.4902 17.0622 68.5705C17.1425 68.6509 17.2228 68.8116 17.3835 68.9722H17.6245C17.7049 68.9722 17.7852 68.9722 17.8656 69.0526C17.9459 69.1329 18.0262 69.2133 18.1066 69.2936C18.2673 69.4543 18.3476 69.615 18.5083 69.7756C18.7493 70.1773 18.9903 70.4987 19.3117 70.6594C19.4724 70.82 19.633 70.9004 19.7937 71.1414C19.8741 71.3021 20.0347 71.3021 20.2758 71.2217C20.3561 71.2217 20.3561 71.3021 20.4364 71.3021C20.5971 71.4628 20.7578 71.5431 20.9185 71.7038C21.0791 71.8645 21.2398 71.8645 21.4808 71.7841C21.4808 71.8645 21.4808 71.8645 21.5612 71.8645C21.6415 71.9448 21.8022 71.8645 22.0432 71.7841C22.8466 71.3824 23.5697 70.8201 24.4534 70.0167C25.2568 69.2936 26.0602 68.5705 26.7833 67.7671C27.5867 66.9637 28.3097 66.08 29.0328 65.1963C30.5592 63.1878 32.0054 61.0186 33.2908 58.7691C33.6925 58.046 34.0942 57.323 34.4959 56.5999C34.8976 55.8768 35.2993 55.0735 35.701 54.3504C36.3437 53.065 36.9864 51.7795 37.5488 50.4137C38.1915 49.1283 38.7539 47.7625 39.3163 46.3968C39.6376 45.4327 39.959 44.5489 40.2804 43.6652C40.441 43.3438 40.6017 42.8618 40.7624 42.3798C40.9231 41.8977 41.0838 41.4157 41.1641 41.014C41.3248 40.6123 41.4855 40.1302 41.6461 39.6482C41.8872 39.0055 42.1282 38.4431 42.3692 37.8004C42.6102 37.1577 42.8512 36.515 43.0922 35.9526C43.2529 35.5509 43.4136 35.1492 43.5743 34.8278C43.735 34.4261 43.8956 34.0244 44.1367 33.7031C44.2973 33.462 44.3777 33.221 44.458 32.98C44.5384 32.739 44.6187 32.498 44.7794 32.257C44.9401 32.0159 45.0204 31.6946 45.1007 31.4536C45.1811 31.2125 45.3418 30.9715 45.4221 30.6502C45.8238 29.9271 46.1452 29.204 46.5469 28.481C46.8682 27.7579 47.2699 27.0349 47.6716 26.3118C48.234 25.3477 48.716 24.3836 49.1981 23.4999C49.6801 22.5358 50.2425 21.6521 50.8049 20.7684C51.2066 20.1256 51.6083 19.4829 52.01 18.8402C52.4117 18.1975 52.8134 17.5548 53.2151 16.912C53.6168 16.2693 53.9381 15.6266 54.3398 15.0642C54.7415 14.5019 55.1432 13.9395 55.4646 13.4574C55.6253 13.1361 55.7859 12.8951 55.9466 12.654C56.1073 12.413 56.268 12.172 56.509 11.931C56.75 11.6096 57.0714 11.2883 57.3124 11.0472C57.5534 10.8062 57.7944 10.4849 58.1158 10.1635C58.2765 9.92248 58.4371 9.7618 58.6782 9.52079L59.2405 8.95841C59.4816 8.71739 59.7226 8.55671 59.8029 8.47637L61.4901 6.86957C63.7396 4.94142 64.8643 4.13802 64.8643 4.13802C65.025 4.05768 65.1857 3.897 65.1857 3.73632C65.266 3.57564 64.8643 3.33462 64.9447 3.0936C65.025 3.01326 65.1053 2.93292 65.1053 2.85258C65.1857 2.77224 65.266 2.6919 65.266 2.61156C65.266 2.12952 65.266 1.96884 65.025 1.96884ZM13.6075 62.1434C13.4469 61.7417 13.3665 61.34 13.3665 60.9383C13.4469 60.5366 13.4469 60.1349 13.4469 59.7332C13.5272 59.8938 13.6075 60.2152 13.6075 60.7776C13.6879 61.4203 13.6879 61.822 13.6075 62.1434Z" fill="#008425"/>
</svg>
