<svg width="41" height="40" viewBox="0 0 41 40" fill="none" xmlns="http://www.w3.org/2000/svg">
<path d="M39.4038 19.0844C39.4073 19.0844 39.4099 19.0844 39.4134 19.0844C39.6557 19.0844 39.8866 18.9828 40.0507 18.8048C40.2175 18.6242 40.3 18.3819 40.2782 18.137C39.4064 8.54759 31.8147 0.952798 22.2249 0.0792144C21.9818 0.0601102 21.7369 0.139132 21.5563 0.306728C21.3757 0.473456 21.275 0.708785 21.2776 0.954535C21.4287 13.6988 23.1098 18.9064 39.4038 19.0844ZM39.4038 20.8455C23.1098 21.0235 21.4296 26.2311 21.2785 38.9754C21.2759 39.2211 21.3766 39.4565 21.5572 39.6232C21.7187 39.7717 21.9297 39.8542 22.1468 39.8542C22.1728 39.8542 22.1998 39.8533 22.2258 39.8507C31.8156 38.9771 39.4073 31.3832 40.2782 21.7929C40.3 21.548 40.2183 21.3057 40.0507 21.1251C39.8832 20.9445 39.6496 20.8551 39.4038 20.8455ZM18.5024 0.0835564C8.94308 0.982323 1.37564 8.57538 0.508189 18.1388C0.486481 18.3837 0.568104 18.6259 0.73569 18.8066C0.899803 18.9846 1.13165 19.0853 1.37304 19.0853C1.37651 19.0853 1.37999 19.0853 1.38346 19.0853C17.6237 18.8986 19.3004 13.6936 19.4533 0.958009C19.4559 0.712259 19.3543 0.476061 19.1737 0.309334C18.9913 0.142606 18.7473 0.0609787 18.5024 0.0835564ZM1.38259 20.8446C1.11254 20.8142 0.900671 20.9428 0.734822 21.1234C0.568104 21.304 0.485613 21.5463 0.507321 21.7912C1.37478 31.3546 8.94308 38.9476 18.5024 39.8464C18.5294 39.849 18.5571 39.8499 18.5841 39.8499C18.8011 39.8499 19.0113 39.7682 19.1728 39.6197C19.3534 39.453 19.455 39.2168 19.4524 38.9711C19.2996 26.2364 17.6237 21.0313 1.38259 20.8446Z" fill="#F4F1EB"/>
</svg>
