<svg width="49" height="29" viewBox="0 0 49 29" fill="none" xmlns="http://www.w3.org/2000/svg">
<path d="M18.9323 4.95106C18.993 5.86283 19.0538 6.7746 19.1146 7.68636C19.1146 8.05107 19.0842 8.38538 19.0842 8.75009C19.1146 10.3001 19.0538 11.8197 18.6285 13.3089C18.3854 14.1599 17.869 14.3423 17.1094 13.856C16.3499 13.3697 15.9246 12.5795 15.317 11.9413C14.8613 11.2726 14.4056 10.604 13.9499 9.93539C12.9777 8.23342 12.0359 6.53146 11.246 4.73832C11.003 4.16086 10.8511 3.49224 10.4257 2.97557C9.93964 2.18537 9.24089 1.82066 8.29909 1.91184C5.99017 1.75988 3.68124 1.75988 1.34194 1.82066C0.309005 1.85105 -0.177083 2.55007 0.217864 3.52263C0.855856 5.10302 1.55461 6.65303 2.37488 8.14225C2.64831 8.90206 3.01288 9.60108 3.4382 10.2697C4.5319 12.5491 5.7775 14.7374 7.20539 16.804C7.56996 17.4423 7.9649 18.0501 8.45099 18.6276C9.8485 20.6942 11.3371 22.6697 13.3423 24.2197C13.8587 24.706 14.4056 25.1315 15.0132 25.4962C17.4436 27.259 20.1779 28.2011 23.1856 28.3531C23.3071 28.4443 23.459 28.4747 23.6109 28.3835C24.4312 28.5354 25.2514 28.505 26.0717 28.4443C27.6515 28.4747 28.4718 27.9276 28.6237 26.7423C28.6844 26.3776 28.7148 26.0129 28.7452 25.6178C28.9275 24.7972 29.049 23.9766 29.292 23.1864C29.5958 22.0923 30.4769 21.7884 31.4491 22.4266C31.5706 22.5178 31.6921 22.6089 31.8136 22.6697C32.9073 23.7942 33.9706 24.9492 35.0643 26.0433C35.672 26.6511 36.1884 27.3501 36.9783 27.7148C37.7986 28.2619 38.71 28.5354 39.6822 28.4747C42.0215 28.5962 44.3912 28.7482 46.7305 28.505C48.5229 28.3227 49.1913 26.955 48.2495 25.405C47.5507 24.2501 46.7912 23.1864 45.8191 22.2442C45.3633 21.6364 44.8165 21.0893 44.2393 20.6031C43.419 19.7825 42.6291 18.9619 41.8088 18.1413C40.5025 16.8344 40.4417 16.3785 41.3835 14.7981C41.5354 14.555 41.7177 14.2815 41.9 14.0383C42.8721 12.7011 43.8747 11.3638 44.8469 10.0266C44.9988 9.81382 45.1811 9.66186 45.1811 9.35794C46.7912 7.62558 48.0065 5.68048 48.6141 3.37067C48.6748 3.12753 48.7052 2.854 48.4925 2.67165C48.1887 1.94223 47.5204 1.91184 46.9128 1.91184C44.3304 1.88145 41.7481 1.88145 39.1657 1.88145C37.5252 1.88145 37.2517 2.0638 36.6441 3.6138C35.3074 7.01773 33.5453 10.1785 31.0845 12.9138C30.6288 13.4001 30.2642 14.1903 29.4743 14.0079C28.654 13.7952 28.7148 12.9138 28.5629 12.2452C28.3502 10.7256 28.5933 9.20598 28.5325 7.68636C28.5629 6.25793 28.6237 4.82949 28.5933 3.40106C28.5325 1.60792 27.6819 0.878504 25.859 0.878504C24.9172 0.69615 23.9451 0.756933 22.9729 0.756933C21.4235 0.696149 19.8437 0.665758 18.2943 0.878504C17.5044 0.969681 16.836 1.30399 16.3499 1.91184C15.9246 2.42851 16.0157 2.854 16.6537 2.94518C17.9297 3.15792 18.5981 3.82655 18.9323 4.95106Z" fill="#F4F1EB"/>
</svg>
