<svg width="191" height="108" viewBox="0 0 191 108" fill="none" xmlns="http://www.w3.org/2000/svg">
<path d="M64.4648 40.7702C65.1299 40.7702 65.3516 41.0658 64.9821 41.7309C64.8343 42.0264 64.6865 42.2481 64.6126 42.5437C64.5387 42.8393 64.4648 43.061 64.317 43.3565C64.1692 43.6521 64.0953 43.8738 64.0215 44.0216C63.9476 44.1694 63.7998 44.3911 63.7259 44.6127C63.5781 44.8344 63.5042 44.9822 63.3564 45.13C63.2086 45.2778 63.1347 45.4256 62.9869 45.5734C62.8391 45.7951 62.7652 45.9428 62.6175 46.1645C62.4697 46.3123 62.3958 46.534 62.248 46.8296C62.1002 47.1252 61.8785 47.4207 61.7307 47.7163C61.5829 48.0858 61.3613 48.3814 61.2874 48.6031C61.2135 48.6769 61.1396 48.8247 61.1396 48.8986C61.0657 48.9725 60.9918 49.0464 60.9918 49.1942C60.4745 49.7854 60.0311 50.3026 59.5878 50.8938C59.1444 51.411 58.6272 52.0022 58.1838 52.5934C57.9621 52.8889 57.7404 53.1106 57.5926 53.4062C57.4448 53.7018 57.2232 53.9974 57.0015 54.2929C56.4842 55.0319 55.9669 55.6969 55.3758 56.2881C54.7846 56.8792 54.1935 57.5443 53.5284 58.2093C53.2328 58.5788 52.8634 58.8744 52.42 59.17C51.9766 59.4656 51.5333 59.6872 50.9421 59.7611C50.7204 59.835 50.4987 59.9089 50.351 60.0567C50.2032 60.2045 50.0554 60.2784 49.8337 60.4262C49.3164 60.7957 48.7253 60.9435 48.208 60.9435C48.0602 60.8696 47.8385 60.8696 47.6908 60.8696C47.543 60.8696 47.3213 60.8696 47.1735 60.7957C46.9518 60.7218 46.7301 60.7218 46.5084 60.6479C46.2868 60.574 46.0651 60.574 45.6956 60.6479C45.1783 60.7218 44.6611 60.6479 44.1438 60.4262C43.6266 60.2045 43.0354 59.9089 42.5181 59.6133C42.0009 59.2439 41.4836 58.8744 41.0402 58.5049C40.5969 58.1355 40.1535 57.766 39.784 57.5443C39.0451 56.9531 38.5278 56.2881 38.1584 55.5491C37.7889 54.8102 37.5672 53.9974 37.4933 53.1845C37.3455 52.0761 37.2716 50.8938 37.3455 49.8593C37.4194 48.7508 37.5672 47.6424 37.8628 46.6079C38.38 44.7605 38.9712 42.9132 39.7101 41.1397C40.4491 39.3662 41.3358 37.5928 42.2226 35.8932C42.8876 34.5631 43.6266 33.3808 44.4394 32.1985C45.2522 31.0161 46.139 29.8338 47.0257 28.6515C48.2819 27.0997 49.612 25.7696 51.1638 24.7351C51.3855 24.5873 51.6072 24.4395 51.8289 24.2178C51.9766 24.07 52.1983 23.8484 52.4939 23.7006C53.6023 22.8877 54.7846 22.2227 55.967 21.7793C56.4103 21.6315 56.7059 21.5576 57.0015 21.6315C57.5187 21.7054 58.1099 21.7793 58.701 21.7793C59.2922 21.7793 59.8095 21.8532 60.3267 22.1488C60.6223 22.2966 60.9179 22.4444 61.2874 22.5922C61.6568 22.7399 61.8785 22.9616 62.1741 23.3311C62.3219 23.6267 62.4697 23.8484 62.6914 24.07C62.913 24.2917 63.1347 24.5134 63.2825 24.809C63.4303 25.1046 63.5781 25.3263 63.652 25.6218C63.7259 25.9174 63.7998 26.1391 63.7998 26.4347C63.8737 26.7303 63.8737 27.0258 63.8737 27.3953C63.8737 27.6909 63.8737 27.9865 64.0215 28.3559C64.0953 28.6515 64.0215 28.9471 63.8737 29.3166C63.7259 29.6121 63.652 29.8338 63.652 30.0555C63.652 30.2772 63.5781 30.4989 63.4303 30.7945C63.4303 30.8684 63.3564 31.0161 63.2825 31.09C62.7652 31.6812 62.3958 32.3462 62.0263 32.9374C61.6568 33.5286 61.2874 34.1936 60.844 34.8587L60.2528 34.7848C60.0311 35.0803 59.7356 35.302 59.5139 35.5976C59.2922 35.8932 59.0705 36.1888 58.9966 36.5582C58.9227 36.7799 58.8488 36.9277 58.6272 37.0755C58.4794 37.2233 58.2577 37.3711 58.1838 37.5189C57.6665 38.0361 57.2232 38.5534 56.7798 39.0707C56.3364 39.5879 55.8192 40.1052 55.3758 40.6224C54.7846 41.2136 54.1935 41.7309 53.6023 42.322C53.0851 42.8393 52.42 43.4304 51.755 43.9477C51.4594 44.2433 51.0899 44.465 50.7204 44.6127C50.351 44.7605 49.9815 44.9822 49.612 45.2039C49.0948 45.4995 48.5775 45.7951 48.0602 46.0906C47.543 46.4601 47.0996 46.7557 46.5823 47.1252C46.4345 47.1991 46.4346 47.1991 46.4346 47.273C46.4346 47.273 46.3607 47.3468 46.2868 47.3468C45.3261 47.4207 44.8089 47.7902 44.735 48.6031C44.6611 49.1942 44.5872 49.7115 44.4394 50.3026C44.2916 50.8199 44.2916 51.411 44.4394 52.0022C44.5133 52.2978 44.5133 52.5934 44.5133 52.9628C44.5133 53.2584 44.5133 53.554 44.5133 53.9235C44.5133 54.3668 44.5872 54.7363 44.8089 55.1058V55.1797C44.9567 55.2536 45.1044 55.4753 45.3261 55.7708C45.4739 55.8447 45.4739 55.9186 45.4739 55.9925C45.5478 55.9925 45.6217 55.9925 45.6217 56.0664V56.1403C46.0651 56.5098 46.5084 56.5098 47.0257 56.2142C47.9124 55.7708 48.8731 55.2536 49.7598 54.7363C50.6465 54.219 51.5333 53.6279 52.2722 52.8889C52.5678 52.5934 52.8634 52.3717 53.159 52.0761C53.4545 51.7805 53.7501 51.4849 54.0457 51.2633C54.4891 50.8199 54.8585 50.4504 55.3019 50.0809C55.6714 49.7115 56.1147 49.2681 56.5581 48.8986C57.0015 48.5292 57.3709 48.1597 57.8143 47.7902C58.1838 47.4207 58.6272 47.0513 58.9966 46.6079C59.5139 46.0167 60.105 45.4256 60.6223 44.8344C61.1396 44.2433 61.7307 43.6521 62.248 42.9871C62.4697 42.6915 62.6914 42.4698 62.913 42.1742C63.1347 41.8786 63.3564 41.5831 63.5042 41.3614C63.652 40.918 64.0215 40.7702 64.4648 40.7702ZM49.3903 36.4104C49.2425 36.7799 49.0948 37.1494 48.947 37.5189C48.7992 37.8883 48.5775 38.2578 48.3558 38.6273C48.8731 38.1839 49.3164 37.8144 49.7598 37.445C50.2032 37.0755 50.6465 36.706 51.0899 36.2627C51.9766 35.3759 52.7895 34.4892 53.6023 33.5286C54.4152 32.5679 55.0063 31.6073 55.5236 30.5728C55.7453 30.1294 56.0408 29.686 56.2625 29.2427C56.4842 28.7993 56.7059 28.3559 56.9276 27.9126C57.0754 27.617 57.1493 27.3214 57.297 26.9519C57.4448 26.6564 57.4448 26.3608 57.4448 25.9913H57.1493C56.8537 26.213 56.5581 26.3608 56.2625 26.5825C55.9669 26.7303 55.7453 26.9519 55.4497 27.2475C55.0802 27.617 54.7846 27.9865 54.4891 28.3559C54.1935 28.7254 53.8979 29.0949 53.6023 29.4644C53.3067 29.9077 53.0112 30.2772 52.7156 30.6467C52.42 31.0161 52.0505 31.3856 51.6811 31.829C51.1638 32.2723 50.8682 32.8635 50.6465 33.5286C50.5726 33.8241 50.4988 34.0458 50.4988 34.1936C50.4249 34.3414 50.351 34.5631 50.2032 34.7848C50.0554 35.0803 49.9076 35.302 49.7598 35.5976C49.6859 35.8932 49.5381 36.1149 49.3903 36.4104Z" fill="#F4F1EB"/>
<path d="M69.564 57.6188C69.2684 57.545 68.9728 57.4711 68.6773 57.3233C68.3817 57.1755 68.16 57.0277 67.8644 56.8799C67.495 56.5843 67.1994 56.4365 66.9777 56.4365C66.8299 56.3626 66.6082 56.2149 66.4604 56.141C66.3126 56.0671 66.1649 55.9193 66.0171 55.7715C65.7215 55.4759 65.4998 55.1803 65.352 55.0325C65.2042 54.8847 65.0564 54.6631 64.9086 54.4414C64.7609 54.2197 64.687 53.998 64.5392 53.7024C64.3914 53.4069 64.2436 53.0374 64.0958 52.5201C63.8002 51.7812 63.5046 51.0422 63.283 50.2294C63.0613 49.4165 62.9135 48.6037 62.9135 47.717C62.9874 47.1997 62.9874 46.6824 62.9874 46.1652C62.9874 45.6479 62.9135 45.1307 62.8396 44.6134C62.8396 44.0222 62.8396 43.505 62.9135 42.9138C62.9135 42.3227 62.9874 41.8054 63.0613 41.2142C63.2091 40.4014 63.283 39.5886 63.4308 38.7757C63.5785 37.9629 63.7263 37.15 63.8741 36.3372C64.0219 35.5244 64.2436 34.7854 64.3914 34.0465C64.5392 33.3075 64.7609 32.4947 65.0564 31.7557C65.2042 31.4602 65.2781 31.1646 65.4259 30.7951C65.5737 30.4995 65.6476 30.1301 65.7954 29.7606C65.9432 29.3172 66.091 28.9477 66.2387 28.5783C66.3865 28.2088 66.6082 27.8393 66.6821 27.396C67.3472 25.5486 68.0861 23.7751 68.899 22.0755C69.4162 21.1149 69.8596 20.0804 70.3768 19.1198C70.8941 18.1591 71.4853 17.1985 72.0764 16.2379C72.5937 15.425 73.1109 14.6861 73.6282 13.8733C74.1455 13.0604 74.7366 12.3215 75.4017 11.5825C76.2145 10.6219 76.9535 9.73515 77.6185 8.77452C77.9141 8.33116 78.2836 7.96168 78.653 7.66611C79.0225 7.29663 79.392 7.00105 79.6876 6.63158C79.9831 6.26211 80.2787 5.89264 80.6482 5.59706C81.0177 5.30148 81.3132 5.0059 81.6088 4.63643C81.9044 4.04527 82.3478 3.74969 82.7911 3.74969C82.9389 3.74969 83.0128 3.74969 83.0867 3.6758C83.1606 3.6019 83.2345 3.6019 83.3823 3.52801C84.1951 3.08464 85.008 2.78906 85.8947 2.78906C86.8553 2.78906 87.5943 3.08464 88.1115 3.6019C88.2593 3.74969 88.3332 3.89748 88.481 3.97138C88.6288 4.04527 88.7027 4.19306 88.8505 4.34085C89.22 4.93201 89.5155 5.52316 89.6633 6.11432C89.8111 6.70548 89.8111 7.37053 89.5894 8.10947C89.4416 8.70063 89.22 9.36568 89.0722 10.0307C88.9244 10.6958 88.7027 11.2869 88.481 11.8781C88.2593 12.4693 88.0376 12.9865 87.816 13.4299C87.5943 13.8733 87.3726 14.3905 87.1509 14.9078C87.0031 15.2034 86.9292 15.425 86.7814 15.6467C86.6336 15.8684 86.5598 16.164 86.412 16.3857C86.1903 16.9768 85.8947 17.6419 85.5252 18.1591C85.1558 18.7503 84.7863 19.3414 84.3429 19.8587C84.1951 20.0804 84.1212 20.2282 83.9734 20.4499C83.8257 20.5977 83.7518 20.8193 83.604 21.1149C83.4562 21.4105 83.3084 21.5583 83.0867 21.5583C82.865 21.5583 82.6433 21.7061 82.5695 22.0017C82.4956 22.445 82.3478 22.8145 82.1261 23.1101C81.9044 23.4795 81.6088 23.7751 81.3871 24.1446C80.8699 24.9574 80.5004 25.7703 80.1309 26.5831C79.9092 27.1004 79.6876 27.6176 79.4659 28.061C79.2442 28.5044 79.0225 28.9477 78.653 29.3911C78.3575 29.8345 78.0619 30.204 77.8402 30.6473C77.6185 31.0907 77.3229 31.4602 77.1013 31.9035C76.7318 32.4947 76.3623 33.0858 75.9928 33.677C75.6234 34.2682 75.2539 34.9332 74.8105 35.5244C74.6627 35.746 74.5888 35.9677 74.441 36.1155C74.2933 36.3372 74.2194 36.485 74.0716 36.6328C73.5543 37.3717 73.1109 38.1107 72.6676 38.7757C72.2242 39.4408 71.7069 40.1058 71.0419 40.7709C70.968 40.8448 70.8941 40.9926 70.6724 41.1403C70.3029 41.4359 70.0074 41.6576 69.7857 42.0271C69.564 42.3227 69.4162 42.6921 69.2684 43.1355C69.1206 43.7267 68.9729 44.3917 68.9729 44.9829C68.9729 45.574 68.899 46.2391 68.8251 46.8302C68.8251 47.1258 68.8251 47.3475 68.7512 47.5692C68.7512 47.7909 68.7512 48.0125 68.8251 48.3081C69.1206 50.0077 69.7118 51.5595 70.5985 52.8157C70.8202 53.2591 71.2636 53.5546 71.8547 53.7024H72.1503C72.6676 53.9241 73.0371 53.998 73.4065 53.8502C73.776 53.7763 74.1455 53.5546 74.5149 53.333C74.9583 53.1852 75.4017 52.9635 75.9189 52.594C76.4362 52.1506 76.9535 51.7073 77.4707 51.19C77.988 50.7466 78.3575 50.2294 78.7269 49.7121C79.0964 49.1949 79.4659 48.6776 79.9092 48.1603C80.2048 47.7909 80.5004 47.4214 80.7221 46.978C80.9438 46.5347 81.2393 46.1652 81.461 45.7218C81.6088 45.5001 81.6827 45.3523 81.8305 45.1307C81.9783 44.9829 82.1261 44.8351 82.2739 44.6873C82.6433 44.2439 82.9389 43.7267 83.0867 43.2833C83.2345 42.9138 83.4562 42.5443 83.604 42.2488C83.7518 41.8793 84.0473 41.5837 84.3429 41.362L84.4907 41.0665C84.7124 40.6231 85.008 40.2536 85.3774 39.8841C85.7469 39.5147 86.0425 39.1452 86.3381 38.7018C87.1509 37.889 87.9638 37.2239 88.8505 36.7067C89.22 36.4111 89.4416 36.3372 89.5894 36.485C89.7372 36.5589 89.7372 36.8545 89.7372 37.3717C89.5894 37.8151 89.3677 38.1846 89.1461 38.4801C88.9244 38.8496 88.7027 39.2191 88.481 39.5886C88.1115 40.3275 87.7421 41.0665 87.2987 41.7315C86.8553 42.4705 86.4859 43.1355 86.1903 43.8745C85.9686 44.4656 85.673 45.0568 85.4513 45.6479C85.2297 46.1652 84.9341 46.7563 84.5646 47.3475V47.4214C84.4168 48.0125 84.1951 48.5298 83.8995 49.0471C83.604 49.5643 83.2345 50.0077 82.865 50.525C82.6433 50.8205 82.4217 51.0422 82.2 51.3378C81.9783 51.6334 81.7566 51.929 81.5349 52.1506C81.3871 52.2984 81.3132 52.4462 81.1655 52.5201C81.0177 52.594 80.9438 52.7418 80.796 52.8157C80.5743 53.333 80.2787 53.7763 79.9092 54.1458C79.5398 54.5153 79.0964 54.8847 78.653 55.2542C78.2836 55.5498 77.9141 55.7715 77.6185 55.9932C77.249 56.2148 76.8796 56.5104 76.4362 56.7321C75.3278 57.3233 74.1455 57.6188 72.9632 57.6927C72.4459 57.7666 72.0025 57.8405 71.4853 57.7666C70.6724 57.7666 70.1552 57.6927 69.564 57.6188ZM83.4562 10.1785C82.7911 11.0653 82.1261 11.952 81.6088 12.7648C81.0177 13.6516 80.4265 14.4644 79.9092 15.3511C79.5398 15.9423 79.1703 16.5335 78.8747 17.1246C78.5052 17.7158 78.1358 18.3069 77.6185 18.8242C76.7318 19.7848 76.1406 20.8193 75.7711 22.0017C75.6234 22.5189 75.4756 23.0362 75.3278 23.4795C75.18 23.9229 74.8844 24.4402 74.5149 24.8835C74.2194 25.1791 73.9977 25.4008 73.9977 25.6225C73.8499 25.992 73.6282 26.3614 73.4804 26.657C73.3326 26.9526 73.2587 27.3221 73.2587 27.7654C73.1109 28.2827 73.037 28.7261 72.8893 29.1694C72.7415 29.465 72.6676 29.7606 72.5198 30.1301C72.372 30.4256 72.2981 30.7212 72.1503 31.0907C72.1503 31.1646 72.1503 31.3124 72.0764 31.3863C72.0025 31.4602 72.0764 31.6079 72.1503 31.6818C72.4459 31.5341 72.6676 31.2385 72.8893 30.7212C72.9632 30.6473 72.9632 30.5734 72.9632 30.4995C72.9632 30.4256 72.9632 30.4256 73.0371 30.3517C73.2587 30.204 73.4804 29.9823 73.5543 29.8345C73.6282 29.6128 73.776 29.3911 73.8499 29.0955C73.8499 28.8738 73.9977 28.6522 74.2194 28.2827C74.8105 27.5437 75.3278 26.7309 75.6973 25.6964L75.9928 25.253C76.6579 24.2924 77.249 23.2579 77.8402 22.1494C78.3575 21.1149 78.9486 20.0065 79.6137 18.8981C79.9092 18.3808 80.2048 17.8636 80.4265 17.3463C80.6482 16.829 80.9438 16.3118 81.2393 15.7206C81.3871 15.5728 81.461 15.425 81.5349 15.3511C81.6088 15.2772 81.6827 15.1295 81.6827 15.0556C81.8305 14.9078 81.9044 14.76 81.9783 14.6122C82.0522 14.4644 82.1261 14.2427 82.2 14.0949C82.2739 13.7994 82.3478 13.5777 82.4956 13.356C82.6433 13.1343 82.7172 12.9126 82.865 12.6909C83.0128 12.2476 83.2345 11.8042 83.4562 11.3608C83.6779 10.9175 83.8257 10.4741 83.9734 10.0307C83.7518 9.95684 83.604 10.0307 83.4562 10.1785Z" fill="#F4F1EB"/>
<path d="M87.7411 57.6188C87.4456 57.545 87.15 57.4711 86.8544 57.3233C86.5588 57.1755 86.3371 57.0277 86.0416 56.8799C85.6721 56.5843 85.3765 56.4365 85.1548 56.4365C85.007 56.3626 84.7853 56.2149 84.6376 56.141C84.4898 56.0671 84.342 55.9193 84.1942 55.7715C83.8986 55.4759 83.6769 55.1803 83.5291 55.0325C83.3814 54.8847 83.2336 54.6631 83.0858 54.4414C82.938 54.2197 82.8641 53.998 82.7163 53.7024C82.5685 53.4069 82.4207 53.0374 82.2729 52.5201C81.9774 51.7812 81.6818 51.0422 81.4601 50.2294C81.2384 49.4165 81.0906 48.6037 81.0906 47.717C81.1645 47.1997 81.1645 46.6824 81.1645 46.1652C81.1645 45.6479 81.0906 45.1307 81.0167 44.6134C81.0167 44.0222 81.0167 43.505 81.0906 42.9138C81.0906 42.3227 81.1645 41.8054 81.2384 41.2142C81.3862 40.4014 81.4601 39.5886 81.6079 38.7757C81.7557 37.9629 81.9035 37.15 82.0512 36.3372C82.199 35.5244 82.4207 34.7854 82.5685 34.0465C82.7163 33.3075 82.938 32.4947 83.2336 31.7557C83.3813 31.4602 83.4552 31.1646 83.603 30.7951C83.7508 30.4995 83.8247 30.1301 83.9725 29.7606C84.1203 29.3172 84.2681 28.9477 84.4159 28.5783C84.5637 28.2088 84.7854 27.8393 84.8592 27.396C85.5243 25.5486 86.2632 23.7751 87.0761 22.0755C87.5933 21.1149 88.0367 20.0804 88.554 19.1198C89.0712 18.1591 89.6624 17.1985 90.2535 16.2379C90.7708 15.425 91.2881 14.6861 91.8053 13.8733C92.3226 13.0604 92.9137 12.3215 93.5788 11.5825C94.3916 10.6219 95.1306 9.73515 95.7956 8.77452C96.0912 8.33116 96.4607 7.96168 96.8302 7.66611C97.1996 7.29663 97.5691 7.00105 97.8647 6.63158C98.1603 6.26211 98.4558 5.89264 98.8253 5.59706C99.1948 5.30148 99.4904 5.0059 99.786 4.63643C100.082 4.04527 100.525 3.74969 100.968 3.74969C101.116 3.74969 101.19 3.74969 101.264 3.6758C101.338 3.6019 101.412 3.6019 101.559 3.52801C102.372 3.08464 103.185 2.78906 104.072 2.78906C105.032 2.78906 105.771 3.08464 106.289 3.6019C106.436 3.74969 106.51 3.89748 106.658 3.97138C106.806 4.04527 106.88 4.19306 107.028 4.34085C107.397 4.93201 107.693 5.52316 107.84 6.11432C107.988 6.70548 107.988 7.37053 107.767 8.10947C107.619 8.70063 107.397 9.36568 107.249 10.0307C107.102 10.6958 106.88 11.2869 106.658 11.8781C106.436 12.4693 106.215 12.9865 105.993 13.4299C105.771 13.8733 105.55 14.3905 105.328 14.9078C105.18 15.2034 105.106 15.425 104.959 15.6467C104.811 15.8684 104.737 16.164 104.589 16.3857C104.367 16.9768 104.072 17.6419 103.702 18.1591C103.333 18.7503 102.963 19.3414 102.52 19.8587C102.372 20.0804 102.298 20.2282 102.151 20.4499C102.003 20.5977 101.929 20.8193 101.781 21.1149C101.633 21.4105 101.486 21.5583 101.264 21.5583C101.042 21.5583 100.82 21.7061 100.747 22.0017C100.673 22.445 100.525 22.8145 100.303 23.1101C100.082 23.4795 99.7859 23.7751 99.5643 24.1446C99.047 24.9574 98.6775 25.7703 98.3081 26.5831C98.0864 27.1004 97.8647 27.6176 97.643 28.061C97.4213 28.5044 97.1996 28.9477 96.8302 29.3911C96.5346 29.8345 96.239 30.204 96.0173 30.6473C95.7956 31.0907 95.5001 31.4602 95.2784 31.9035C94.9089 32.4947 94.5394 33.0858 94.17 33.677C93.8005 34.2682 93.431 34.9332 92.9876 35.5244C92.8399 35.746 92.766 35.9677 92.6182 36.1155C92.4704 36.3372 92.3965 36.485 92.2487 36.6328C91.7314 37.3717 91.2881 38.1107 90.8447 38.7757C90.4013 39.5147 89.8841 40.1058 89.219 40.7709C89.1451 40.8448 89.0712 40.9926 88.8496 41.1403C88.4801 41.4359 88.1845 41.6576 87.9628 42.0271C87.7411 42.3227 87.5933 42.6921 87.4456 43.1355C87.2978 43.7267 87.15 44.3917 87.15 44.9829C87.15 45.574 87.0761 46.2391 87.0022 46.8302C87.0022 47.1258 87.0022 47.3475 86.9283 47.5692C86.9283 47.7909 86.9283 48.0125 87.0022 48.3081C87.2978 50.0077 87.8889 51.5595 88.7757 52.8157C88.9973 53.2591 89.4407 53.5546 90.0319 53.7024H90.3274C90.8447 53.9241 91.2142 53.998 91.5836 53.8502C91.9531 53.7763 92.3226 53.5546 92.6921 53.333C93.1354 53.1852 93.5788 52.9635 94.0961 52.594C94.6133 52.1506 95.1306 51.7073 95.6479 51.19C96.1651 50.7466 96.5346 50.2294 96.9041 49.7121C97.2735 49.1949 97.643 48.6776 98.0864 48.1603C98.382 47.7909 98.6775 47.4214 98.8992 46.978C99.1209 46.5347 99.4165 46.1652 99.6382 45.7218C99.7859 45.5001 99.8598 45.3523 100.008 45.1307C100.155 44.9829 100.303 44.8351 100.451 44.6873C100.82 44.2439 101.116 43.7267 101.264 43.2833C101.412 42.9138 101.633 42.5443 101.781 42.2488C101.929 41.8793 102.224 41.5837 102.52 41.362L102.668 41.0665C102.89 40.6231 103.185 40.2536 103.555 39.8841C103.924 39.5147 104.22 39.1452 104.515 38.7018C105.328 37.889 106.141 37.2239 107.028 36.7067C107.397 36.4111 107.619 36.3372 107.767 36.485C107.914 36.5589 107.914 36.8545 107.914 37.3717C107.767 37.8151 107.545 38.1846 107.323 38.4801C107.102 38.8496 106.88 39.2191 106.658 39.5886C106.289 40.3275 105.919 41.0665 105.476 41.7315C105.032 42.4705 104.663 43.1355 104.367 43.8745C104.146 44.4656 103.85 45.0568 103.628 45.6479C103.407 46.1652 103.111 46.7563 102.742 47.3475V47.4214C102.594 48.0125 102.372 48.5298 102.077 49.0471C101.781 49.5643 101.412 50.0077 101.042 50.525C100.82 50.8205 100.599 51.0422 100.377 51.3378C100.155 51.6334 99.9337 51.929 99.7121 52.1506C99.5643 52.2984 99.4904 52.4462 99.3426 52.5201C99.1948 52.594 99.1209 52.7418 98.9731 52.8157C98.7514 53.333 98.4558 53.7763 98.0864 54.1458C97.7169 54.5153 97.2735 54.8847 96.8302 55.2542C96.4607 55.5498 96.0912 55.7715 95.7956 55.9932C95.4262 56.2148 95.0567 56.5104 94.6133 56.7321C93.5049 57.3233 92.3226 57.6188 91.1403 57.6927C90.623 57.7666 90.1797 57.8405 89.6624 57.7666C88.8496 57.7666 88.2584 57.6927 87.7411 57.6188ZM101.559 10.1785C100.894 11.0653 100.229 11.952 99.7121 12.7648C99.1209 13.6516 98.5297 14.4644 98.0125 15.3511C97.643 15.9423 97.2735 16.5335 96.978 17.1246C96.6085 17.7158 96.239 18.3069 95.7218 18.8242C94.835 19.7848 94.2439 20.8193 93.8744 22.0017C93.7266 22.5189 93.5788 23.0362 93.431 23.4795C93.2832 23.9229 92.9876 24.4402 92.6182 24.8835C92.3226 25.1791 92.1009 25.4008 92.1009 25.6225C91.9531 25.992 91.7314 26.3614 91.5836 26.657C91.4359 26.9526 91.362 27.3221 91.362 27.7654C91.2142 28.2827 91.1403 28.7261 90.9925 29.1694C90.8447 29.465 90.7708 29.7606 90.623 30.1301C90.4752 30.4256 90.4013 30.7212 90.2535 31.0907C90.2535 31.1646 90.2535 31.3124 90.1797 31.3863C90.1058 31.4602 90.1797 31.6079 90.2535 31.6818C90.5491 31.5341 90.7708 31.2385 90.9925 30.7212C91.0664 30.6473 91.0664 30.5734 91.0664 30.4995C91.0664 30.4256 91.0664 30.4256 91.1403 30.3517C91.362 30.204 91.5836 29.9823 91.6575 29.8345C91.7314 29.6128 91.8792 29.3911 91.9531 29.0955C91.9531 28.8738 92.1009 28.6522 92.3226 28.2827C92.9138 27.5437 93.431 26.7309 93.8005 25.6964L94.0961 25.253C94.7611 24.2924 95.3523 23.2579 95.9434 22.1494C96.4607 21.1149 97.0519 20.0065 97.7169 18.8981C98.0125 18.3808 98.3081 17.8636 98.5297 17.3463C98.7514 16.829 99.047 16.3118 99.3426 15.7206C99.4904 15.5728 99.5643 15.425 99.6382 15.3511C99.712 15.2772 99.786 15.1295 99.786 15.0556C99.9337 14.9078 100.008 14.76 100.082 14.6122C100.155 14.4644 100.229 14.2427 100.303 14.0949C100.377 13.7994 100.451 13.5777 100.599 13.356C100.747 13.1343 100.82 12.9126 100.968 12.6909C101.116 12.2476 101.338 11.8042 101.559 11.3608C101.781 10.9175 101.929 10.4741 102.077 10.0307C101.929 9.95684 101.781 10.0307 101.559 10.1785Z" fill="#F4F1EB"/>
<path d="M111.168 58.5776C110.577 58.2081 111.168 57.8387 109.394 57.617C109.246 57.617 109.173 57.4692 109.246 57.2475C109.468 56.6563 108.508 56.9519 107.104 56.0652V55.9913C107.03 55.9174 106.956 55.9174 106.956 55.9174C106.956 55.8435 106.882 55.7696 106.808 55.6957C106.586 55.4001 106.365 55.1785 106.291 55.1046V55.0307C106.143 54.6612 105.995 54.2917 105.995 53.8484V52.8877C105.995 52.5921 105.995 52.2966 105.921 51.9271C105.773 51.3359 105.773 50.8187 105.921 50.2275C106.069 49.7103 106.143 49.1191 106.217 48.5279C106.291 47.7151 106.808 47.3456 107.769 47.2717C107.916 47.2717 107.916 47.2717 107.916 47.1978C107.916 47.1978 107.99 47.1239 108.064 47.0501C108.581 46.6806 109.025 46.3111 109.542 46.0155C110.059 45.6461 110.577 45.3505 111.094 45.1288C111.463 44.9071 111.833 44.7593 112.202 44.5376C112.572 44.3898 112.941 44.1682 113.237 43.8726C113.902 43.3553 114.493 42.8381 115.084 42.2469C115.601 41.7296 116.193 41.1385 116.858 40.5473C117.375 40.0301 117.818 39.5128 118.262 38.9955C118.705 38.4783 119.222 37.961 119.666 37.4438C119.813 37.296 119.961 37.1482 120.109 37.0004C120.257 36.8526 120.405 36.6309 120.478 36.4831C120.626 36.1137 120.774 35.8181 120.996 35.5225C121.217 35.2269 121.513 35.0052 121.735 34.7097L121.882 34.4141C122.326 33.749 122.695 33.084 123.065 32.4928C123.434 31.9017 123.878 31.2366 124.321 30.6455C124.469 30.5716 124.469 30.4238 124.469 30.3499C124.617 30.0543 124.69 29.8326 124.69 29.6109C124.69 29.3892 124.764 29.1676 124.912 28.872C125.06 28.5025 125.134 28.2069 125.06 27.9114C124.912 27.6158 124.912 27.3202 124.912 26.9507C124.912 26.6551 124.912 26.3596 124.838 25.9901C124.764 25.6945 124.69 25.4728 124.69 25.1773C124.617 24.8817 124.543 24.66 124.321 24.3644C124.173 24.0688 123.951 23.8472 123.73 23.6255C123.508 23.4038 123.36 23.1821 123.213 22.8865C122.991 22.5909 122.695 22.3693 122.326 22.1476C121.956 21.9998 121.661 21.852 121.365 21.7042C120.848 21.4086 120.331 21.3347 119.74 21.3347C119.148 21.3347 118.557 21.3347 118.04 21.1869C117.818 21.1131 117.449 21.1869 117.005 21.3347C115.749 21.7781 114.641 22.4432 113.532 23.256C113.311 23.4038 113.089 23.5516 112.867 23.7733C112.72 23.921 112.498 24.1427 112.202 24.2905C110.65 25.325 109.32 26.6551 108.064 28.2069C107.177 29.3892 106.291 30.5716 105.478 31.7539C104.665 32.9362 103.926 34.1924 103.261 35.4486C102.374 37.1482 101.488 38.9216 100.749 40.6951C100.01 42.4686 99.3446 44.316 98.9012 46.1633C98.6057 47.2717 98.384 48.3802 98.384 49.4147C98.3101 50.5231 98.384 51.6315 98.5318 52.7399C98.6795 53.5528 98.9012 54.3656 99.1968 55.1046C99.5663 55.8435 100.084 56.5086 100.822 57.0997C101.192 57.3953 101.635 57.6909 102.079 58.0603C102.522 58.4298 103.039 58.7993 103.557 59.1688C104.074 59.5382 104.665 59.7599 105.182 59.9816C105.7 60.2033 106.217 60.2772 106.734 60.2033C107.03 60.1294 107.325 60.1294 107.547 60.2033C107.769 60.2772 107.99 60.2772 108.212 60.3511C108.36 60.425 108.581 60.425 108.729 60.425C108.877 60.425 109.099 60.2033 109.32 60.2772C109.764 60.2772 110.133 60.425 110.503 60.2033C112.793 59.5382 111.907 58.9471 111.168 58.5776ZM110.429 37.5177C110.577 37.1482 110.724 36.7787 110.872 36.4092C111.02 36.1137 111.168 35.892 111.316 35.5964C111.463 35.3008 111.685 35.0791 111.759 34.7836C111.907 34.5619 111.981 34.4141 112.054 34.1924C112.128 34.0446 112.202 33.8229 112.202 33.5273C112.35 32.8623 112.72 32.2711 113.237 31.8278C113.606 31.3844 113.976 31.0149 114.271 30.6455C114.567 30.276 114.862 29.9065 115.158 29.4631C115.454 29.0937 115.749 28.7242 116.045 28.3547C116.34 27.9852 116.636 27.6158 117.005 27.2463C117.227 26.9507 117.523 26.729 117.818 26.5813C118.114 26.4335 118.409 26.2118 118.705 25.9901H119.001C119.001 26.2857 118.927 26.5813 118.853 26.9507C118.705 27.2463 118.631 27.5419 118.483 27.9114C118.336 28.3547 118.114 28.7981 117.818 29.2415C117.597 29.6848 117.301 30.1282 117.079 30.5716C116.562 31.6061 115.971 32.5667 115.158 33.5273C114.345 34.488 113.532 35.3747 112.646 36.2614C112.202 36.7048 111.759 37.0743 111.316 37.4438C110.872 37.8132 110.355 38.1827 109.912 38.6261C110.059 38.2566 110.281 37.8871 110.429 37.5177Z" fill="#F4F1EB"/>
<path d="M59.8084 1.6811C59.7345 1.60721 59.7345 1.60721 59.8084 1.6811C59.7345 1.6811 59.7345 1.6811 59.6606 1.60721C59.5128 1.38552 57.8872 2.34615 58.0349 2.27226C58.1088 2.19836 58.1088 2.12447 58.1088 2.05057C58.1088 1.97668 58.1088 1.82889 58.1827 1.755C58.3305 1.53331 58.4044 1.38552 58.4783 1.08995C58.2566 1.16384 58.1827 1.01605 58.1088 0.794367C58.0349 0.498788 57.8133 0.424894 57.5177 0.424894C57.0004 0.350999 56.4093 0.350999 55.892 0.350999C55.7442 0.20321 55.5225 0.0554209 55.3009 0.0554209C54.7097 -0.0184736 54.1185 -0.0184736 53.4535 0.0554209C53.1579 0.0554209 52.8623 0.129316 52.4929 0.277105C51.6061 0.720472 50.7933 1.31163 50.0543 1.97668C49.611 2.34615 49.1676 2.71563 48.7242 3.15899L47.468 4.4891C47.0247 5.00636 46.5813 5.59751 46.1379 6.18867C45.6946 6.77983 45.3251 7.37098 44.8817 8.03604C44.5122 8.62719 44.1428 9.14445 43.7733 9.73561C43.4038 10.3268 42.3693 11.9524 42.3693 11.9524C42.4432 11.7308 38.6746 18.6769 37.0489 22.5933C34.9798 27.7659 33.3542 32.6429 33.0586 33.5297C33.0586 33.5297 31.2112 38.7023 31.0634 39.2196C30.8417 39.6629 30.6201 40.4019 30.4723 40.8452C30.3984 41.1408 30.3245 41.3625 30.1767 41.6581C30.1028 41.8059 30.1028 41.8798 30.0289 42.0275C29.7333 42.6926 29.3639 43.4315 28.9944 44.0966C28.6249 44.7616 28.2554 45.4267 27.886 46.0917C27.5904 46.5351 27.3687 46.9785 26.9992 47.4218C26.7036 47.8652 26.4081 48.3086 26.1125 48.752C25.8169 49.1953 25.5952 49.6387 25.2997 50.0082C25.0041 50.3776 24.7085 50.7471 24.4868 51.1166C23.9696 51.7816 23.5262 52.3728 23.0089 52.9639C22.4917 53.5551 21.9744 54.0724 21.4571 54.5896C21.2355 54.7374 21.0877 54.8852 20.9399 55.033C20.7921 55.1808 20.5704 55.3286 20.3487 55.4025C20.127 55.5503 19.9792 55.6241 19.8315 55.7719C19.6837 55.9197 19.5359 56.0675 19.3142 56.1414C19.1664 56.2892 18.9447 56.3631 18.8708 56.3631C18.723 56.5109 18.5014 56.5848 18.3536 56.5848C18.2058 56.6587 17.9841 56.7326 17.8363 56.8065C17.6885 56.8804 17.6146 56.9542 17.4668 56.9542C17.4668 56.8804 17.3929 56.8065 17.3929 56.7326C17.319 56.5109 17.319 56.2892 17.319 55.9936C17.1713 55.4025 17.1713 54.8113 17.1713 54.1463C17.1713 53.4812 17.1713 52.8162 17.2451 52.225C17.319 51.5599 17.3929 50.8949 17.3929 50.3037C17.4668 49.7865 17.5407 49.2692 17.6146 48.752C17.6885 48.2347 17.7624 47.7913 17.9102 47.2741C18.058 46.8307 18.1319 46.3134 18.2058 45.8701C18.2797 45.4267 18.3536 44.9094 18.5014 44.4661C18.6491 43.4315 18.8708 42.6187 19.0925 41.8798C19.3142 41.2147 19.462 40.6235 19.6098 40.0324C19.7576 39.4412 19.9054 38.8501 20.0531 38.185C20.2748 37.4461 20.5704 36.5593 20.9399 35.6726C21.3093 34.9337 21.6049 34.1208 21.9005 33.3819C22.0483 33.0124 22.1961 32.569 22.4178 32.0518C22.7133 31.4606 23.0089 30.7956 23.2306 30.2783C23.6001 29.4655 26.9253 20.8198 27.5904 17.199C28.551 12.8392 28.4771 8.84888 25.8169 7.59267C25.743 7.59267 25.743 7.59267 25.6691 7.59267C25.4474 7.51877 25.2258 7.44488 25.0041 7.37098H24.9302C24.5607 7.2232 24.1912 7.2232 23.8218 7.2232C23.6001 7.2232 23.3784 7.29709 23.0828 7.29709C22.5656 7.37098 21.9744 7.44488 21.3093 7.59267C20.9399 7.66656 20.5704 7.81435 20.2009 7.88825C19.9792 7.88825 19.7576 7.96214 19.6098 8.03604C19.3881 8.18383 19.0925 8.25772 18.8708 8.33161C18.7969 8.40551 18.723 8.40551 18.723 8.4794C18.6491 8.5533 18.5014 8.5533 18.4275 8.62719C18.4275 8.62719 18.4275 8.5533 18.4275 8.4794C18.6491 8.33161 18.8708 8.25772 19.0925 8.18383C19.1664 8.10993 19.2403 8.10993 19.2403 8.10993C19.3142 8.10993 19.3142 8.03604 19.3142 7.88825C19.0925 7.88825 18.8708 7.96214 18.6491 7.96214C18.4275 7.96214 18.2797 8.03604 18.058 8.10993C17.9102 8.25772 17.8363 8.33161 17.8363 8.4794C17.8363 8.5533 17.7624 8.5533 17.7624 8.5533C17.6146 8.5533 17.4668 8.62719 17.2451 8.70109C17.1713 8.77498 17.0974 8.84888 17.0235 8.92277C16.8757 8.92277 16.8018 8.99667 16.654 8.99667C16.4323 9.07056 16.2845 9.14445 16.0628 9.21835C15.8411 9.29224 15.6934 9.44003 15.5456 9.58782C15.4717 9.66172 15.3978 9.66172 15.3239 9.66172C15.25 9.66172 15.1761 9.73561 15.1761 9.8834C15.1022 9.9573 15.0283 10.1051 14.8066 10.179C14.7327 10.2529 14.7327 10.2529 14.6588 10.2529C14.6588 10.2529 14.5849 10.2529 14.5849 10.3268C14.511 10.3268 14.511 10.4007 14.4372 10.4007L14.511 10.2529L14.3633 10.179C14.1416 10.2529 13.9938 10.3268 13.9199 10.4007C13.7721 10.6223 13.6243 10.844 13.4026 10.9179C13.1809 11.0657 12.9593 11.2135 12.8115 11.4352C12.5898 11.583 12.442 11.8047 12.2942 11.9524C12.0725 12.1002 11.9247 12.248 11.7769 12.3958C11.6292 12.5436 11.4075 12.7653 11.2597 12.987L11.1119 13.1348C10.9641 13.2826 10.8163 13.3564 10.6685 13.5042C10.5207 13.5781 10.373 13.7259 10.2991 13.8737C10.2991 13.8737 10.2991 13.8737 10.2991 13.9476C10.373 14.0954 10.373 14.0954 10.2991 14.1693C10.2252 14.1693 10.2252 14.1693 10.1513 14.1693L10.0035 14.3171C10.0035 14.4649 10.0035 14.5388 9.92958 14.5388C9.85569 14.5388 9.78179 14.6127 9.63401 14.6865C9.63401 14.7604 9.63401 14.7604 9.63401 14.8343C8.3778 15.9428 7.19548 17.199 6.16096 18.3813C6.16096 18.3813 5.34812 19.268 4.97865 19.7853C4.53528 20.3764 4.01802 21.0415 3.50076 21.7065L2.02286 23.8495C1.72729 24.2928 1.43171 24.8101 1.13613 25.2535C0.840551 25.6968 0.618867 26.2141 0.397183 26.6575C0.323289 26.7314 0.249394 26.8053 0.249394 26.9531C0.0277105 27.3964 -0.0461841 27.692 0.0277105 27.9137C0.101605 28.0615 0.1755 28.2832 0.397183 28.4309C0.323289 28.6526 0.323289 28.8004 0.323289 28.9482C0.397183 29.1699 0.544973 29.3916 0.840551 29.6133C1.65339 30.2783 2.46623 30.6478 3.42686 30.6478C4.09191 30.7217 4.60917 30.5739 5.12644 30.1305C5.34812 29.9088 5.6437 29.5394 5.86538 29.0221C6.08707 28.6526 6.30875 28.2832 6.45654 27.9876C6.67822 27.692 6.82601 27.3225 7.0477 27.0269C8.23001 25.1057 10.0774 22.7411 10.0774 22.7411C14.1416 18.3074 19.8315 13.5042 21.8266 14.1693C22.4917 14.391 22.5656 15.3516 22.4178 16.8295C22.0483 18.8985 20.3487 23.7756 18.723 28.2832C16.9496 32.4951 15.3978 36.2638 15.1761 36.781C15.1022 37.0027 15.0283 37.2244 15.0283 37.3722C14.9544 37.52 14.9544 37.7417 14.8805 37.9633C14.7327 38.4067 14.5849 38.8501 14.4372 39.2196C14.2894 39.589 14.1416 40.0324 13.9938 40.4019C13.5504 41.4364 13.3287 42.4709 13.1809 43.5054C13.0332 44.54 12.8115 45.5006 12.442 46.5351C12.3681 46.8307 12.2942 47.1263 12.2203 47.4218C12.1464 47.7174 12.0725 48.013 11.9986 48.3086C11.9247 48.6042 11.8508 48.8997 11.8508 49.2692C11.8508 49.5648 11.7769 49.9343 11.7769 50.2298C11.7769 50.3776 11.7769 50.5993 11.8508 50.7471C11.8508 50.8949 11.9247 51.0427 11.9986 51.1166C12.1464 51.2644 12.1464 51.4122 12.1464 51.7077C12.0725 52.0033 12.0725 52.2989 12.0725 52.5945C12.0725 52.89 12.0725 53.1856 11.9986 53.4812L11.9247 53.9246C11.9247 54.0724 11.9247 54.1463 11.9247 54.2202C11.9986 54.2202 12.0725 54.3679 11.9986 54.5896L11.9247 55.033C11.9986 55.698 12.0725 56.2892 12.1464 56.8804C12.2203 57.4715 12.3681 58.0627 12.442 58.6538C12.5898 59.0972 12.7376 59.3928 12.8854 59.5406L13.1809 60.0578C13.2548 60.2795 13.4026 60.5012 13.4765 60.649C13.5504 60.7968 13.6982 61.0185 13.7721 61.2401C13.9199 61.5357 14.1416 61.7574 14.3633 61.9052C14.5849 62.053 14.8066 62.2747 14.9544 62.5702H15.0283C15.1761 62.5702 15.3239 62.6441 15.4717 62.7919C15.5456 62.8658 15.6195 62.8658 15.6934 62.9397C15.7673 63.0136 15.8411 63.1614 15.9889 63.3092H16.2106C16.2845 63.3092 16.3584 63.3092 16.4323 63.3831C16.5062 63.457 16.5801 63.5309 16.654 63.6048C16.8018 63.7526 16.8757 63.9003 17.0235 64.0481C17.2451 64.4176 17.4668 64.7132 17.7624 64.861C17.9102 65.0088 18.058 65.0827 18.2058 65.3043C18.2797 65.4521 18.4275 65.4521 18.6491 65.3782C18.723 65.3782 18.723 65.4521 18.7969 65.4521C18.9447 65.5999 19.0925 65.6738 19.2403 65.8216C19.3881 65.9694 19.5359 65.9694 19.7576 65.8955C19.7576 65.9694 19.7576 65.9694 19.8315 65.9694C19.9054 66.0433 20.0531 65.9694 20.2748 65.8955C21.0138 65.526 21.6788 65.0088 22.4917 64.2698C23.2306 63.6048 23.9696 62.9397 24.6346 62.2008C25.3735 61.4618 26.0386 60.649 26.7037 59.8361C28.1076 57.9888 29.4378 55.9936 30.6201 53.9246C30.9895 53.2595 31.359 52.5945 31.7285 51.9294C32.098 51.2644 32.4674 50.5254 32.8369 49.8604C33.4281 48.6781 34.0192 47.4957 34.5365 46.2395C35.1276 45.0572 35.6449 43.801 36.1622 42.5448C36.4577 41.6581 36.7533 40.8452 37.0489 40.0324C37.1967 39.7368 37.3445 39.2934 37.4923 38.8501C37.64 38.4067 37.7878 37.9633 37.8617 37.5939C38.0095 37.2244 38.1573 36.781 38.3051 36.3377C38.5268 35.7465 38.7485 35.2292 38.9701 34.6381C39.1918 34.0469 39.4135 33.4558 39.6352 32.9385C39.783 32.569 39.9308 32.1996 40.0786 31.904C40.2264 31.5345 40.3741 31.165 40.5958 30.8695C40.7436 30.6478 40.8175 30.4261 40.8914 30.2044C40.9653 29.9827 41.0392 29.761 41.187 29.5394C41.3348 29.3177 41.4087 29.0221 41.4826 28.8004C41.5565 28.5787 41.7042 28.357 41.7781 28.0615C42.1476 27.3964 42.4432 26.7314 42.8127 26.0663C43.1082 25.4013 43.4777 24.7362 43.8472 24.0712C44.3645 23.1844 44.8078 22.2977 45.2512 21.4849C45.6946 20.5981 46.2118 19.7853 46.7291 18.9724C47.0986 18.3813 47.468 17.7901 47.8375 17.199C48.207 16.6078 48.5764 16.0167 48.9459 15.4255C49.3154 14.8343 49.611 14.2432 49.9804 13.7259C50.3499 13.2087 50.7194 12.6914 51.015 12.248C51.1628 11.9524 51.3105 11.7308 51.4583 11.5091C51.6061 11.2874 51.7539 11.0657 51.9756 10.844C52.1973 10.5485 52.4929 10.2529 52.7145 10.0312C52.9362 9.80951 53.1579 9.51393 53.4535 9.21835C53.6013 8.99667 53.7491 8.84888 53.9707 8.62719L54.488 8.10993C54.7097 7.88825 54.9314 7.74046 55.0053 7.66656L56.5571 6.18867C58.6261 4.4152 59.6606 3.67626 59.6606 3.67626C59.8084 3.60236 59.9562 3.45457 59.9562 3.30678C60.0301 3.15899 59.6606 2.93731 59.7345 2.71563C59.8084 2.64173 59.8823 2.56784 59.8823 2.49394C59.9562 2.42005 60.0301 2.34615 60.0301 2.27226C60.0301 1.82889 60.0301 1.6811 59.8084 1.6811ZM12.5159 57.0281C12.3681 56.6587 12.2942 56.2892 12.2942 55.9197C12.3681 55.5503 12.3681 55.1808 12.3681 54.8113C12.442 54.9591 12.5159 55.2547 12.5159 55.7719C12.5898 56.3631 12.5898 56.7326 12.5159 57.0281Z" fill="#F4F1EB"/>
<path d="M16.0636 77H17.7736L18.0436 78.08H18.1156C18.4276 77.624 18.7936 77.288 19.2136 77.072C19.6456 76.856 20.1676 76.748 20.7796 76.748C21.9076 76.748 22.7536 77.108 23.3176 77.828C23.8816 78.536 24.1636 79.682 24.1636 81.266C24.1636 82.034 24.0736 82.73 23.8936 83.354C23.7136 83.966 23.4436 84.488 23.0836 84.92C22.7356 85.352 22.3036 85.682 21.7876 85.91C21.2836 86.138 20.7016 86.252 20.0416 86.252C19.6696 86.252 19.3636 86.222 19.1236 86.162C18.8836 86.114 18.6436 86.03 18.4036 85.91V89.6H16.0636V77ZM20.0776 78.728C19.6216 78.728 19.2616 78.842 18.9976 79.07C18.7456 79.298 18.5476 79.64 18.4036 80.096V83.84C18.5716 83.972 18.7516 84.08 18.9436 84.164C19.1476 84.236 19.4116 84.272 19.7356 84.272C20.4076 84.272 20.9116 84.038 21.2476 83.57C21.5836 83.09 21.7516 82.304 21.7516 81.212C21.7516 80.42 21.6196 79.808 21.3556 79.376C21.0916 78.944 20.6656 78.728 20.0776 78.728ZM25.7303 77.522C26.2103 77.306 26.7803 77.138 27.4403 77.018C28.1003 76.886 28.7903 76.82 29.5103 76.82C30.1343 76.82 30.6563 76.898 31.0763 77.054C31.4963 77.198 31.8263 77.408 32.0663 77.684C32.3183 77.96 32.4923 78.29 32.5883 78.674C32.6963 79.058 32.7503 79.49 32.7503 79.97C32.7503 80.498 32.7323 81.032 32.6963 81.572C32.6603 82.1 32.6363 82.622 32.6243 83.138C32.6243 83.654 32.6423 84.158 32.6783 84.65C32.7143 85.13 32.8043 85.586 32.9483 86.018H31.0403L30.6623 84.776H30.5723C30.3323 85.148 29.9963 85.472 29.5643 85.748C29.1443 86.012 28.5983 86.144 27.9263 86.144C27.5063 86.144 27.1283 86.084 26.7923 85.964C26.4563 85.832 26.1683 85.652 25.9283 85.424C25.6883 85.184 25.5023 84.908 25.3703 84.596C25.2383 84.272 25.1723 83.912 25.1723 83.516C25.1723 82.964 25.2923 82.502 25.5323 82.13C25.7843 81.746 26.1383 81.44 26.5943 81.212C27.0623 80.972 27.6143 80.81 28.2503 80.726C28.8983 80.63 29.6183 80.6 30.4103 80.636C30.4943 79.964 30.4463 79.484 30.2663 79.196C30.0863 78.896 29.6843 78.746 29.0603 78.746C28.5923 78.746 28.0943 78.794 27.5663 78.89C27.0503 78.986 26.6243 79.112 26.2883 79.268L25.7303 77.522ZM28.7003 84.218C29.1683 84.218 29.5403 84.116 29.8163 83.912C30.0923 83.696 30.2963 83.468 30.4283 83.228V82.058C30.0563 82.022 29.6963 82.016 29.3483 82.04C29.0123 82.064 28.7123 82.118 28.4483 82.202C28.1843 82.286 27.9743 82.406 27.8183 82.562C27.6623 82.718 27.5843 82.916 27.5843 83.156C27.5843 83.492 27.6803 83.756 27.8723 83.948C28.0763 84.128 28.3523 84.218 28.7003 84.218ZM41.086 85.442C40.726 85.706 40.288 85.904 39.772 86.036C39.268 86.18 38.746 86.252 38.206 86.252C37.486 86.252 36.874 86.138 36.37 85.91C35.878 85.682 35.476 85.364 35.164 84.956C34.852 84.536 34.624 84.032 34.48 83.444C34.348 82.856 34.282 82.208 34.282 81.5C34.282 79.976 34.624 78.806 35.308 77.99C35.992 77.162 36.988 76.748 38.296 76.748C38.956 76.748 39.484 76.802 39.88 76.91C40.288 77.018 40.654 77.156 40.978 77.324L40.42 79.232C40.144 79.1 39.868 78.998 39.592 78.926C39.328 78.854 39.022 78.818 38.674 78.818C38.026 78.818 37.534 79.034 37.198 79.466C36.862 79.886 36.694 80.564 36.694 81.5C36.694 81.884 36.736 82.238 36.82 82.562C36.904 82.886 37.03 83.168 37.198 83.408C37.366 83.648 37.582 83.84 37.846 83.984C38.122 84.116 38.44 84.182 38.8 84.182C39.196 84.182 39.532 84.134 39.808 84.038C40.084 83.93 40.33 83.804 40.546 83.66L41.086 85.442ZM48.8932 79.07H46.3912V86H43.9792V79.07H41.4052V77H48.8932V79.07ZM55.3546 81.896L55.4446 80.618H55.3906L54.6166 81.932L51.4126 86H49.9366V77H52.2766V81.284L52.1686 82.508H52.2406L52.9786 81.23L56.2186 77H57.6946V86H55.3546V81.896ZM66.2252 79.07H63.7232V86H61.3112V79.07H58.7372V77H66.2252V79.07ZM74.3281 85.226C73.9681 85.514 73.4761 85.76 72.8521 85.964C72.2401 86.156 71.5861 86.252 70.8901 86.252C69.4381 86.252 68.3761 85.832 67.7041 84.992C67.0321 84.14 66.6961 82.976 66.6961 81.5C66.6961 79.916 67.0741 78.728 67.8301 77.936C68.5861 77.144 69.6481 76.748 71.0161 76.748C71.4721 76.748 71.9161 76.808 72.3481 76.928C72.7801 77.048 73.1641 77.246 73.5001 77.522C73.8361 77.798 74.1061 78.17 74.3101 78.638C74.5141 79.106 74.6161 79.688 74.6161 80.384C74.6161 80.636 74.5981 80.906 74.5621 81.194C74.5381 81.482 74.4961 81.782 74.4361 82.094H69.0361C69.0721 82.85 69.2641 83.42 69.6121 83.804C69.9721 84.188 70.5481 84.38 71.3401 84.38C71.8321 84.38 72.2701 84.308 72.6541 84.164C73.0501 84.008 73.3501 83.852 73.5541 83.696L74.3281 85.226ZM70.9801 78.62C70.3681 78.62 69.9121 78.806 69.6121 79.178C69.3241 79.538 69.1501 80.024 69.0901 80.636H72.4381C72.4861 79.988 72.3841 79.49 72.1321 79.142C71.8921 78.794 71.5081 78.62 70.9801 78.62ZM80.9713 79.07H79.1893C79.1173 79.922 79.0333 80.768 78.9373 81.608C78.8413 82.448 78.6853 83.204 78.4693 83.876C78.2653 84.536 77.9833 85.076 77.6233 85.496C77.2633 85.904 76.7953 86.108 76.2193 86.108C75.5233 86.108 75.0313 86.018 74.7433 85.838L75.0313 83.894C75.2233 83.966 75.4033 84.002 75.5713 84.002C75.8113 84.002 76.0213 83.9 76.2013 83.696C76.3813 83.492 76.5313 83.126 76.6513 82.598C76.7833 82.07 76.8853 81.356 76.9573 80.456C77.0413 79.544 77.1013 78.392 77.1373 77H83.3113V86H80.9713V79.07ZM87.679 84.038C88.039 84.11 88.381 84.146 88.705 84.146C89.281 84.146 89.695 84.05 89.947 83.858C90.211 83.654 90.343 83.342 90.343 82.922C90.343 82.142 89.815 81.752 88.759 81.752C88.363 81.752 88.003 81.794 87.679 81.878V84.038ZM87.679 80.204C87.967 80.156 88.255 80.126 88.543 80.114C88.843 80.09 89.113 80.078 89.353 80.078C89.977 80.078 90.505 80.15 90.937 80.294C91.369 80.426 91.717 80.618 91.981 80.87C92.257 81.122 92.455 81.422 92.575 81.77C92.695 82.106 92.755 82.472 92.755 82.868C92.755 83.96 92.431 84.776 91.783 85.316C91.135 85.856 90.037 86.126 88.489 86.126C87.805 86.126 87.211 86.114 86.707 86.09C86.215 86.066 85.759 86.036 85.339 86V77H87.679V80.204ZM99.4372 82.472H96.5032V86H94.1632V77H96.5032V80.384H99.4372V77H101.777V86H99.4372V82.472ZM103.777 77.522C104.257 77.306 104.827 77.138 105.487 77.018C106.147 76.886 106.837 76.82 107.557 76.82C108.181 76.82 108.703 76.898 109.123 77.054C109.543 77.198 109.873 77.408 110.113 77.684C110.365 77.96 110.539 78.29 110.635 78.674C110.743 79.058 110.797 79.49 110.797 79.97C110.797 80.498 110.779 81.032 110.743 81.572C110.707 82.1 110.683 82.622 110.671 83.138C110.671 83.654 110.689 84.158 110.725 84.65C110.761 85.13 110.851 85.586 110.995 86.018H109.087L108.709 84.776H108.619C108.379 85.148 108.043 85.472 107.611 85.748C107.191 86.012 106.645 86.144 105.973 86.144C105.553 86.144 105.175 86.084 104.839 85.964C104.503 85.832 104.215 85.652 103.975 85.424C103.735 85.184 103.549 84.908 103.417 84.596C103.285 84.272 103.219 83.912 103.219 83.516C103.219 82.964 103.339 82.502 103.579 82.13C103.831 81.746 104.185 81.44 104.641 81.212C105.109 80.972 105.661 80.81 106.297 80.726C106.945 80.63 107.665 80.6 108.457 80.636C108.541 79.964 108.493 79.484 108.313 79.196C108.133 78.896 107.731 78.746 107.107 78.746C106.639 78.746 106.141 78.794 105.613 78.89C105.097 78.986 104.671 79.112 104.335 79.268L103.777 77.522ZM106.747 84.218C107.215 84.218 107.587 84.116 107.863 83.912C108.139 83.696 108.343 83.468 108.475 83.228V82.058C108.103 82.022 107.743 82.016 107.395 82.04C107.059 82.064 106.759 82.118 106.495 82.202C106.231 82.286 106.021 82.406 105.865 82.562C105.709 82.718 105.631 82.916 105.631 83.156C105.631 83.492 105.727 83.756 105.919 83.948C106.123 84.128 106.399 84.218 106.747 84.218ZM117.513 82.598L116.433 82.814L114.705 86H111.915L113.661 83.174L114.543 82.508C113.955 82.412 113.469 82.136 113.085 81.68C112.701 81.212 112.509 80.63 112.509 79.934C112.509 78.842 112.869 78.038 113.589 77.522C114.321 77.006 115.437 76.748 116.937 76.748C117.513 76.748 118.047 76.778 118.539 76.838C119.043 76.898 119.481 76.964 119.853 77.036V86H117.513V82.598ZM117.513 81.374V78.89C117.381 78.83 117.237 78.788 117.081 78.764C116.925 78.74 116.775 78.728 116.631 78.728C116.091 78.728 115.671 78.842 115.371 79.07C115.071 79.298 114.921 79.64 114.921 80.096C114.921 80.552 115.083 80.888 115.407 81.104C115.743 81.32 116.229 81.422 116.865 81.41L117.513 81.374ZM16.0096 95.522C16.4896 95.306 17.0596 95.138 17.7196 95.018C18.3796 94.886 19.0696 94.82 19.7896 94.82C20.4136 94.82 20.9356 94.898 21.3556 95.054C21.7756 95.198 22.1056 95.408 22.3456 95.684C22.5976 95.96 22.7716 96.29 22.8676 96.674C22.9756 97.058 23.0296 97.49 23.0296 97.97C23.0296 98.498 23.0116 99.032 22.9756 99.572C22.9396 100.1 22.9156 100.622 22.9036 101.138C22.9036 101.654 22.9216 102.158 22.9576 102.65C22.9936 103.13 23.0836 103.586 23.2276 104.018H21.3196L20.9416 102.776H20.8516C20.6116 103.148 20.2756 103.472 19.8436 103.748C19.4236 104.012 18.8776 104.144 18.2056 104.144C17.7856 104.144 17.4076 104.084 17.0716 103.964C16.7356 103.832 16.4476 103.652 16.2076 103.424C15.9676 103.184 15.7816 102.908 15.6496 102.596C15.5176 102.272 15.4516 101.912 15.4516 101.516C15.4516 100.964 15.5716 100.502 15.8116 100.13C16.0636 99.746 16.4176 99.44 16.8736 99.212C17.3416 98.972 17.8936 98.81 18.5296 98.726C19.1776 98.63 19.8976 98.6 20.6896 98.636C20.7736 97.964 20.7256 97.484 20.5456 97.196C20.3656 96.896 19.9636 96.746 19.3396 96.746C18.8716 96.746 18.3736 96.794 17.8456 96.89C17.3296 96.986 16.9036 97.112 16.5676 97.268L16.0096 95.522ZM18.9796 102.218C19.4476 102.218 19.8196 102.116 20.0956 101.912C20.3716 101.696 20.5756 101.468 20.7076 101.228V100.058C20.3356 100.022 19.9756 100.016 19.6276 100.04C19.2916 100.064 18.9916 100.118 18.7276 100.202C18.4636 100.286 18.2536 100.406 18.0976 100.562C17.9416 100.718 17.8636 100.916 17.8636 101.156C17.8636 101.492 17.9596 101.756 18.1516 101.948C18.3556 102.128 18.6316 102.218 18.9796 102.218ZM29.8893 97.07H28.1073C28.0353 97.922 27.9513 98.768 27.8553 99.608C27.7593 100.448 27.6033 101.204 27.3873 101.876C27.1833 102.536 26.9013 103.076 26.5413 103.496C26.1813 103.904 25.7133 104.108 25.1373 104.108C24.4413 104.108 23.9493 104.018 23.6613 103.838L23.9493 101.894C24.1413 101.966 24.3213 102.002 24.4893 102.002C24.7293 102.002 24.9393 101.9 25.1193 101.696C25.2993 101.492 25.4493 101.126 25.5693 100.598C25.7013 100.07 25.8033 99.356 25.8753 98.456C25.9593 97.544 26.0193 96.392 26.0553 95H32.2293V104H29.8893V97.07ZM36.597 102.038C36.957 102.11 37.299 102.146 37.623 102.146C38.199 102.146 38.613 102.05 38.865 101.858C39.129 101.654 39.261 101.342 39.261 100.922C39.261 100.142 38.733 99.752 37.677 99.752C37.281 99.752 36.921 99.794 36.597 99.878V102.038ZM36.597 98.204C36.885 98.156 37.173 98.126 37.461 98.114C37.761 98.09 38.031 98.078 38.271 98.078C38.895 98.078 39.423 98.15 39.855 98.294C40.287 98.426 40.635 98.618 40.899 98.87C41.175 99.122 41.373 99.422 41.493 99.77C41.613 100.106 41.673 100.472 41.673 100.868C41.673 101.96 41.349 102.776 40.701 103.316C40.053 103.856 38.955 104.126 37.407 104.126C36.723 104.126 36.129 104.114 35.625 104.09C35.133 104.066 34.677 104.036 34.257 104V95H36.597V98.204ZM48.9108 97.07H46.4088V104H43.9968V97.07H41.4228V95H48.9108V97.07ZM57.0136 103.226C56.6536 103.514 56.1616 103.76 55.5376 103.964C54.9256 104.156 54.2716 104.252 53.5756 104.252C52.1236 104.252 51.0616 103.832 50.3896 102.992C49.7176 102.14 49.3816 100.976 49.3816 99.5C49.3816 97.916 49.7596 96.728 50.5156 95.936C51.2716 95.144 52.3336 94.748 53.7016 94.748C54.1576 94.748 54.6016 94.808 55.0336 94.928C55.4656 95.048 55.8496 95.246 56.1856 95.522C56.5216 95.798 56.7916 96.17 56.9956 96.638C57.1996 97.106 57.3016 97.688 57.3016 98.384C57.3016 98.636 57.2836 98.906 57.2476 99.194C57.2236 99.482 57.1816 99.782 57.1216 100.094H51.7216C51.7576 100.85 51.9496 101.42 52.2976 101.804C52.6576 102.188 53.2336 102.38 54.0256 102.38C54.5176 102.38 54.9556 102.308 55.3396 102.164C55.7356 102.008 56.0356 101.852 56.2396 101.696L57.0136 103.226ZM53.6656 96.62C53.0536 96.62 52.5976 96.806 52.2976 97.178C52.0096 97.538 51.8356 98.024 51.7756 98.636H55.1236C55.1716 97.988 55.0696 97.49 54.8176 97.142C54.5776 96.794 54.1936 96.62 53.6656 96.62ZM58.9542 95H60.6642L60.9342 96.08H61.0062C61.3182 95.624 61.6842 95.288 62.1042 95.072C62.5362 94.856 63.0582 94.748 63.6702 94.748C64.7982 94.748 65.6442 95.108 66.2082 95.828C66.7722 96.536 67.0542 97.682 67.0542 99.266C67.0542 100.034 66.9642 100.73 66.7842 101.354C66.6042 101.966 66.3342 102.488 65.9742 102.92C65.6262 103.352 65.1942 103.682 64.6782 103.91C64.1742 104.138 63.5922 104.252 62.9322 104.252C62.5602 104.252 62.2542 104.222 62.0142 104.162C61.7742 104.114 61.5342 104.03 61.2942 103.91V107.6H58.9542V95ZM62.9682 96.728C62.5122 96.728 62.1522 96.842 61.8882 97.07C61.6362 97.298 61.4382 97.64 61.2942 98.096V101.84C61.4622 101.972 61.6422 102.08 61.8342 102.164C62.0382 102.236 62.3022 102.272 62.6262 102.272C63.2982 102.272 63.8022 102.038 64.1382 101.57C64.4742 101.09 64.6422 100.304 64.6422 99.212C64.6422 98.42 64.5102 97.808 64.2462 97.376C63.9822 96.944 63.5562 96.728 62.9682 96.728ZM73.9489 100.472H71.0149V104H68.6749V95H71.0149V98.384H73.9489V95H76.2889V104H73.9489V100.472ZM78.2889 95.522C78.7689 95.306 79.3389 95.138 79.9989 95.018C80.6589 94.886 81.3489 94.82 82.0689 94.82C82.6929 94.82 83.2149 94.898 83.6349 95.054C84.0549 95.198 84.3849 95.408 84.6249 95.684C84.8769 95.96 85.0509 96.29 85.1469 96.674C85.2549 97.058 85.3089 97.49 85.3089 97.97C85.3089 98.498 85.2909 99.032 85.2549 99.572C85.2189 100.1 85.1949 100.622 85.1829 101.138C85.1829 101.654 85.2009 102.158 85.2369 102.65C85.2729 103.13 85.3629 103.586 85.5069 104.018H83.5989L83.2209 102.776H83.1309C82.8909 103.148 82.5549 103.472 82.1229 103.748C81.7029 104.012 81.1569 104.144 80.4849 104.144C80.0649 104.144 79.6869 104.084 79.3509 103.964C79.0149 103.832 78.7269 103.652 78.4869 103.424C78.2469 103.184 78.0609 102.908 77.9289 102.596C77.7969 102.272 77.7309 101.912 77.7309 101.516C77.7309 100.964 77.8509 100.502 78.0909 100.13C78.3429 99.746 78.6969 99.44 79.1529 99.212C79.6209 98.972 80.1729 98.81 80.8089 98.726C81.4569 98.63 82.1769 98.6 82.9689 98.636C83.0529 97.964 83.0049 97.484 82.8249 97.196C82.6449 96.896 82.2429 96.746 81.6189 96.746C81.1509 96.746 80.6529 96.794 80.1249 96.89C79.6089 96.986 79.1829 97.112 78.8469 97.268L78.2889 95.522ZM81.2589 102.218C81.7269 102.218 82.0989 102.116 82.3749 101.912C82.6509 101.696 82.8549 101.468 82.9869 101.228V100.058C82.6149 100.022 82.2549 100.016 81.9069 100.04C81.5709 100.064 81.2709 100.118 81.0069 100.202C80.7429 100.286 80.5329 100.406 80.3769 100.562C80.2209 100.718 80.1429 100.916 80.1429 101.156C80.1429 101.492 80.2389 101.756 80.4309 101.948C80.6349 102.128 80.9109 102.218 81.2589 102.218ZM93.7526 97.07H91.2506V104H88.8386V97.07H86.2646V95H93.7526V97.07ZM100.214 99.896L100.304 98.618H100.25L99.476 99.932L96.272 104H94.796V95H97.136V99.284L97.028 100.508H97.1L97.838 99.23L101.078 95H102.554V104H100.214V99.896ZM104.605 95.018C105.025 94.982 105.529 94.946 106.117 94.91C106.717 94.874 107.359 94.856 108.043 94.856C109.363 94.856 110.299 95.048 110.851 95.432C111.415 95.804 111.697 96.368 111.697 97.124C111.697 97.544 111.577 97.952 111.337 98.348C111.097 98.744 110.719 99.032 110.203 99.212V99.284C110.851 99.428 111.319 99.686 111.607 100.058C111.895 100.418 112.039 100.886 112.039 101.462C112.039 102.362 111.691 103.034 110.995 103.478C110.311 103.922 109.207 104.144 107.683 104.144C107.179 104.144 106.645 104.126 106.081 104.09C105.517 104.066 105.025 104.03 104.605 103.982V95.018ZM106.891 102.2C107.059 102.224 107.215 102.242 107.359 102.254C107.503 102.266 107.683 102.272 107.899 102.272C108.547 102.272 109.009 102.182 109.285 102.002C109.561 101.822 109.699 101.546 109.699 101.174C109.699 100.862 109.579 100.61 109.339 100.418C109.111 100.214 108.697 100.112 108.097 100.112H106.891V102.2ZM108.133 98.672C108.517 98.672 108.829 98.582 109.069 98.402C109.321 98.21 109.447 97.97 109.447 97.682C109.447 97.37 109.339 97.136 109.123 96.98C108.919 96.812 108.541 96.728 107.989 96.728C107.713 96.728 107.491 96.734 107.323 96.746C107.167 96.758 107.023 96.77 106.891 96.782V98.672H108.133ZM113.639 95.522C114.119 95.306 114.689 95.138 115.349 95.018C116.009 94.886 116.699 94.82 117.419 94.82C118.043 94.82 118.565 94.898 118.985 95.054C119.405 95.198 119.735 95.408 119.975 95.684C120.227 95.96 120.401 96.29 120.497 96.674C120.605 97.058 120.659 97.49 120.659 97.97C120.659 98.498 120.641 99.032 120.605 99.572C120.569 100.1 120.545 100.622 120.533 101.138C120.533 101.654 120.551 102.158 120.587 102.65C120.623 103.13 120.713 103.586 120.857 104.018H118.949L118.571 102.776H118.481C118.241 103.148 117.905 103.472 117.473 103.748C117.053 104.012 116.507 104.144 115.835 104.144C115.415 104.144 115.037 104.084 114.701 103.964C114.365 103.832 114.077 103.652 113.837 103.424C113.597 103.184 113.411 102.908 113.279 102.596C113.147 102.272 113.081 101.912 113.081 101.516C113.081 100.964 113.201 100.502 113.441 100.13C113.693 99.746 114.047 99.44 114.503 99.212C114.971 98.972 115.523 98.81 116.159 98.726C116.807 98.63 117.527 98.6 118.319 98.636C118.403 97.964 118.355 97.484 118.175 97.196C117.995 96.896 117.593 96.746 116.969 96.746C116.501 96.746 116.003 96.794 115.475 96.89C114.959 96.986 114.533 97.112 114.197 97.268L113.639 95.522ZM116.609 102.218C117.077 102.218 117.449 102.116 117.725 101.912C118.001 101.696 118.205 101.468 118.337 101.228V100.058C117.965 100.022 117.605 100.016 117.257 100.04C116.921 100.064 116.621 100.118 116.357 100.202C116.093 100.286 115.883 100.406 115.727 100.562C115.571 100.718 115.493 100.916 115.493 101.156C115.493 101.492 115.589 101.756 115.781 101.948C115.985 102.128 116.261 102.218 116.609 102.218Z" fill="#F4F1EB"/>
</svg>
